<svg xmlns="http://www.w3.org/2000/svg" viewBox="0 0 119.68 86.1"><defs><style>.cls-1{fill:#b7c0cc;}.cls-2{fill:#e9ecf2;}.cls-3{fill:none;stroke-linecap:round;}.cls-3,.cls-4,.cls-5{stroke:#222b3c;stroke-miterlimit:10;stroke-width:2.5px;}.cls-4{fill:#222b3c;}.cls-5{fill:#009fea;}</style></defs><title>Asset 6</title><g id="Layer_2" data-name="Layer 2"><g id="Layer_1-2" data-name="Layer 1"><polygon class="cls-1" points="81.49 55.03 66.18 39.73 73.15 32.75 81.49 41.08 102.15 20.42 109.13 27.39 81.49 55.03"/><path class="cls-1" d="M75.4,23.87V20.65a3.88,3.88,0,0,0-3.88-3.88H58.91A3.88,3.88,0,0,0,55,20.65v3.23H49.36V20.1a8.77,8.77,0,0,1,8.77-8.77H72.3a8.77,8.77,0,0,1,8.77,8.77v3.77Z"/><path class="cls-2" d="M71.4,21.87V18.65a3.88,3.88,0,0,0-3.88-3.88H54.91A3.88,3.88,0,0,0,51,18.65v3.23H45.36V18.1a8.77,8.77,0,0,1,8.77-8.77H68.3a8.77,8.77,0,0,1,8.77,8.77v3.77Z"/><path class="cls-3" d="M66.83,9.33H68.3a8.77,8.77,0,0,1,8.77,8.77v3.77H71.4V18.65a3.88,3.88,0,0,0-3.88-3.88H54.91A3.88,3.88,0,0,0,51,18.65v3.23H45.36V18.1a8.77,8.77,0,0,1,8.77-8.77h7.09"/><rect class="cls-1" x="28.73" y="25.25" width="72.59" height="49.32"/><path class="cls-2" d="M15.19,73.14l.75-.41a.67.67,0,0,0,.27-.27l.41-.75a.67.67,0,0,1,1.18,0l.41.75a.67.67,0,0,0,.27.27l.75.41a.67.67,0,0,1,0,1.18l-.75.41a.67.67,0,0,0-.27.27l-.41.75a.67.67,0,0,1-1.18,0L16.21,75a.67.67,0,0,0-.27-.27l-.75-.41A.67.67,0,0,1,15.19,73.14Z"/><path class="cls-1" d="M16,65.38A4.37,4.37,0,1,1,20.35,61,4.37,4.37,0,0,1,16,65.38ZM16,59a2,2,0,1,0,2,2A2,2,0,0,0,16,59Z"/><path class="cls-2" d="M92.64,6.74l.76,1.39a1.25,1.25,0,0,0,.5.5l1.39.76a1.25,1.25,0,0,1,0,2.19l-1.39.76a1.25,1.25,0,0,0-.5.5l-.76,1.39a1.25,1.25,0,0,1-2.19,0l-.76-1.39a1.25,1.25,0,0,0-.5-.5l-1.39-.76a1.25,1.25,0,0,1,0-2.19l1.39-.76a1.25,1.25,0,0,0,.5-.5l.76-1.39A1.25,1.25,0,0,1,92.64,6.74Z"/><path class="cls-2" d="M110,32.91l.52.94a.85.85,0,0,0,.34.34l.94.52a.85.85,0,0,1,0,1.48l-.94.52a.85.85,0,0,0-.34.34L110,38a.85.85,0,0,1-1.48,0L108,37a.85.85,0,0,0-.34-.34l-.94-.52a.85.85,0,0,1,0-1.48l.94-.52a.85.85,0,0,0,.34-.34l.52-.94A.85.85,0,0,1,110,32.91Z"/><path class="cls-2" d="M114.45.44l.52.94a.85.85,0,0,0,.34.34l.94.52a.85.85,0,0,1,0,1.48l-.94.52a.85.85,0,0,0-.34.34l-.52.94a.85.85,0,0,1-1.48,0l-.52-.94a.85.85,0,0,0-.34-.34l-.94-.52a.85.85,0,0,1,0-1.48l.94-.52a.85.85,0,0,0,.34-.34L113,.44A.85.85,0,0,1,114.45.44Z"/><path class="cls-1" d="M106.32,13.89A2.68,2.68,0,1,1,109,11.21,2.68,2.68,0,0,1,106.32,13.89Zm0-3a.31.31,0,1,0,.31.31A.31.31,0,0,0,106.32,10.9Z"/><path class="cls-1" d="M119.68,21.93a4,4,0,1,1-4-4A4,4,0,0,1,119.68,21.93Zm-5.59,0a1.61,1.61,0,1,0,1.61-1.61A1.61,1.61,0,0,0,114.1,21.93Z"/><path class="cls-2" d="M23,79.65l.64-.35a.57.57,0,0,0,.23-.23l.35-.64a.57.57,0,0,1,1,0l.35.64a.57.57,0,0,0,.23.23l.64.35a.57.57,0,0,1,0,1L25.8,81a.57.57,0,0,0-.23.23l-.35.64a.57.57,0,0,1-1,0l-.35-.64a.57.57,0,0,0-.23-.23L23,80.65A.57.57,0,0,1,23,79.65Z"/><path class="cls-2" d="M5.39,71.41l-.92.5a.83.83,0,0,0-.33.33l-.5.92a.83.83,0,0,1-1.45,0l-.5-.92a.83.83,0,0,0-.33-.33l-.92-.5A.83.83,0,0,1,.43,70l.92-.5a.83.83,0,0,0,.33-.33l.5-.92a.83.83,0,0,1,1.45,0l.5.92a.83.83,0,0,0,.33.33l.92.5A.83.83,0,0,1,5.39,71.41Z"/><path class="cls-2" d="M118,9.31l.23.43a.38.38,0,0,0,.15.15l.43.23a.38.38,0,0,1,0,.67l-.43.23a.38.38,0,0,0-.15.15l-.23.43a.38.38,0,0,1-.67,0l-.23-.43A.38.38,0,0,0,117,11l-.43-.23a.38.38,0,0,1,0-.67l.43-.23a.38.38,0,0,0,.15-.15l.23-.43A.38.38,0,0,1,118,9.31Z"/><path class="cls-1" d="M11,86.1A2.95,2.95,0,1,1,14,83.15,3,3,0,0,1,11,86.1Zm0-3.53a.58.58,0,1,0,.58.58A.58.58,0,0,0,11,82.57Z"/><path class="cls-2" d="M91.49,22.06H30.94a6,6,0,0,0-6,6V63.78a7.8,7.8,0,0,0,7.8,7.8H89.18a8.36,8.36,0,0,0,8.36-8.36V28.11A6,6,0,0,0,91.49,22.06Z"/><rect class="cls-1" x="40.34" y="58.91" width="8.12" height="12.65"/><rect class="cls-1" x="73.75" y="58.91" width="8.12" height="12.65"/><polyline class="cls-3" points="97.55 50.85 89.41 58.91 33.03 58.91 24.89 50.85"/><path class="cls-3" d="M89.18,71.57h2.07a6.29,6.29,0,0,0,6.29-6.29V28.35a6.29,6.29,0,0,0-6.29-6.29H31.19a6.29,6.29,0,0,0-6.29,6.29v4.39"/><path class="cls-3" d="M24.9,45.58v19.7a6.29,6.29,0,0,0,6.29,6.29H83.4"/><line class="cls-3" x1="24.9" y1="38.7" x2="24.9" y2="40.74"/><rect class="cls-4" x="55.47" y="55.75" width="11.5" height="6.32"/><polygon class="cls-5" points="78.49 51.03 63.18 35.73 70.15 28.75 78.49 37.08 99.15 16.42 106.13 23.39 78.49 51.03"/></g></g></svg>