<svg xmlns="http://www.w3.org/2000/svg" viewBox="0 0 123.39 79.3"><defs><style>.cls-1{fill:#b7c0cc;}.cls-2{fill:#e9ecf2;}.cls-3{fill:#fff;}.cls-4{fill:none;stroke:#222b3c;stroke-linecap:round;stroke-miterlimit:10;stroke-width:2.5px;}.cls-5{fill:#009fea;}</style></defs><title>Asset 3</title><g id="Layer_2" data-name="Layer 2"><g id="Layer_1-2" data-name="Layer 1"><rect class="cls-1" x="36.19" y="21.27" width="82.2" height="58.02"/><path class="cls-2" d="M32.19,18.15h82.2a0,0,0,0,1,0,0V73.86a2.31,2.31,0,0,1-2.31,2.31H33.94a1.75,1.75,0,0,1-1.75-1.75V18.15A0,0,0,0,1,32.19,18.15Z"/><rect class="cls-3" x="40.82" y="34.26" width="69.09" height="35.97" rx="0.95" ry="0.95"/><path class="cls-4" d="M83.08,76.17h29a2.48,2.48,0,0,0,2.48-2.48V20.63a2.48,2.48,0,0,0-2.48-2.48h-8.59"/><line class="cls-4" x1="75.3" y1="76.17" x2="77.71" y2="76.17"/><path class="cls-4" d="M32.36,62.6V73.69a2.48,2.48,0,0,0,2.48,2.48H67.91"/><path class="cls-4" d="M96.62,18.15H34.84a2.48,2.48,0,0,0-2.48,2.48V44.34"/><rect class="cls-1" x="39.32" y="23.75" width="33.33" height="3.85" rx="0.59" ry="0.59"/><path class="cls-2" d="M15,57.68l-.41-.75a.67.67,0,0,0-.27-.27l-.75-.41a.67.67,0,0,1,0-1.18l.75-.41a.67.67,0,0,0,.27-.27l.41-.75a.67.67,0,0,1,1.18,0l.41.75a.67.67,0,0,0,.27.27l.75.41a.67.67,0,0,1,0,1.18l-.75.41a.67.67,0,0,0-.27.27l-.41.75A.67.67,0,0,1,15,57.68Z"/><path class="cls-2" d="M99.51,3.33l1.39-.77a1.25,1.25,0,0,0,.49-.5l.75-1.4a1.25,1.25,0,0,1,2.19,0L105.11,2a1.25,1.25,0,0,0,.5.49l1.4.75a1.25,1.25,0,0,1,0,2.19l-1.39.77a1.25,1.25,0,0,0-.49.5l-.75,1.4a1.25,1.25,0,0,1-2.19,0l-.77-1.39a1.25,1.25,0,0,0-.5-.49l-1.4-.75A1.25,1.25,0,0,1,99.51,3.33Z"/><path class="cls-2" d="M109.25,9.23l.94-.52a.85.85,0,0,0,.33-.34l.51-.95a.85.85,0,0,1,1.48,0l.52.94a.85.85,0,0,0,.34.33l.95.51a.85.85,0,0,1,0,1.48l-.94.52a.85.85,0,0,0-.33.34l-.51.95a.85.85,0,0,1-1.48,0l-.52-.94a.85.85,0,0,0-.34-.33l-.95-.51A.85.85,0,0,1,109.25,9.23Z"/><path class="cls-1" d="M95.83,9.26a2.68,2.68,0,1,1-2.7-2.66A2.68,2.68,0,0,1,95.83,9.26Zm-3,0A.31.31,0,1,0,93.15,9,.31.31,0,0,0,92.85,9.28Z"/><path class="cls-1" d="M9.54,61.5a2.68,2.68,0,1,1-2.7-2.66A2.68,2.68,0,0,1,9.54,61.5Zm-3,0a.31.31,0,1,0,.31-.31A.31.31,0,0,0,6.56,61.52Z"/><path class="cls-1" d="M25.13,47.41a4,4,0,1,1-4,4A4,4,0,0,1,25.13,47.41Zm0,5.59a1.61,1.61,0,1,0-1.62-1.6A1.61,1.61,0,0,0,25.16,53Z"/><path class="cls-2" d="M17.65,61.89l.92-.51A.83.83,0,0,0,18.9,61l.5-.92a.83.83,0,0,1,1.45,0l.51.92a.83.83,0,0,0,.33.33l.92.5a.83.83,0,0,1,0,1.45l-.92.51a.83.83,0,0,0-.33.33l-.5.92a.83.83,0,0,1-1.45,0l-.51-.92a.83.83,0,0,0-.33-.33l-.92-.5A.83.83,0,0,1,17.65,61.89Z"/><path class="cls-2" d="M.2,58.12l.43-.24a.38.38,0,0,0,.15-.15L1,57.3a.38.38,0,0,1,.67,0l.24.43a.38.38,0,0,0,.15.15l.43.23a.38.38,0,0,1,0,.67L2.07,59a.38.38,0,0,0-.15.15l-.23.43a.38.38,0,0,1-.67,0l-.24-.43A.38.38,0,0,0,.63,59L.2,58.79A.38.38,0,0,1,.2,58.12Z"/><path class="cls-1" d="M123.39,3.63a2.95,2.95,0,1,1-3-2.93A3,3,0,0,1,123.39,3.63Zm-3.53,0a.58.58,0,1,0,.58-.58A.58.58,0,0,0,119.86,3.66Z"/><polyline class="cls-5" points="66.3 68.11 66.3 55.55 58.43 55.55 58.43 68.11"/><polyline class="cls-5" points="77.72 68.11 77.72 42.99 69.85 42.99 69.85 68.11"/><polyline class="cls-5" points="100.55 68.11 100.55 38.83 92.68 38.83 92.68 68.11"/><polyline class="cls-5" points="54.88 68.11 54.88 48.94 47.01 48.94 47.01 68.11"/><polyline class="cls-5" points="89.13 68.11 89.13 50.87 81.27 50.87 81.27 68.11"/><line class="cls-4" x1="107.21" y1="68.11" x2="39.69" y2="68.11"/></g></g></svg>