<svg xmlns="http://www.w3.org/2000/svg" viewBox="0 0 95.08 86.55"><defs><style>.cls-1{fill:#e9ecf2;}.cls-2{fill:#b7c0cc;}.cls-3{fill:#fdd15f;}.cls-4{fill:#fdd800;}.cls-5{fill:#d9b800;}.cls-6{fill:#222b3c;}.cls-7{fill:#f54350;}.cls-8{fill:none;stroke:#222b3c;stroke-linecap:round;stroke-miterlimit:10;stroke-width:2.5px;}</style></defs><title>Asset 15</title><g id="Layer_2" data-name="Layer 2"><g id="Layer_1-2" data-name="Layer 1"><path class="cls-1" d="M67.19,54.08l-.41-.75a.67.67,0,0,0-.27-.27l-.75-.41a.67.67,0,0,1,0-1.18l.75-.41a.67.67,0,0,0,.27-.27l.41-.75a.67.67,0,0,1,1.18,0l.41.75A.67.67,0,0,0,69,51l.75.41a.67.67,0,0,1,0,1.18L69,53a.67.67,0,0,0-.27.27l-.41.75A.67.67,0,0,1,67.19,54.08Z"/><path class="cls-1" d="M11.91,14.51l.94-.52a.85.85,0,0,0,.33-.34l.51-.95a.85.85,0,0,1,1.48,0l.52.94A.85.85,0,0,0,16,14l.95.51A.85.85,0,0,1,17,16l-.94.52a.85.85,0,0,0-.33.34l-.51.95a.85.85,0,0,1-1.48,0l-.52-.94a.85.85,0,0,0-.34-.33L11.92,16A.85.85,0,0,1,11.91,14.51Z"/><path class="cls-1" d="M18.5,35.25l.41-.23a.37.37,0,0,0,.14-.15l.22-.41a.37.37,0,0,1,.64,0l.23.41a.37.37,0,0,0,.15.14l.41.22a.37.37,0,0,1,0,.64l-.41.23a.37.37,0,0,0-.14.15l-.22.41a.37.37,0,0,1-.64,0l-.23-.41a.37.37,0,0,0-.15-.14l-.41-.22A.37.37,0,0,1,18.5,35.25Z"/><path class="cls-2" d="M25.52,26.48a2.68,2.68,0,1,1-2.7-2.66A2.68,2.68,0,0,1,25.52,26.48Zm-3,0a.31.31,0,1,0,.31-.31A.31.31,0,0,0,22.53,26.5Z"/><path class="cls-2" d="M66.16,59.4a2.68,2.68,0,1,1-2.7-2.66A2.68,2.68,0,0,1,66.16,59.4Zm-3,0a.31.31,0,1,0,.31-.31A.31.31,0,0,0,63.18,59.42Z"/><path class="cls-2" d="M75.69,55.44a4,4,0,1,1-4,4A4,4,0,0,1,75.69,55.44Zm0,5.59a1.61,1.61,0,1,0-1.62-1.6A1.61,1.61,0,0,0,75.73,61Z"/><path class="cls-1" d="M59.65,67.43l.92-.51a.83.83,0,0,0,.33-.33l.5-.92a.83.83,0,0,1,1.45,0l.51.92a.83.83,0,0,0,.33.33l.92.5a.83.83,0,0,1,0,1.45l-.92.51a.83.83,0,0,0-.33.33l-.5.92a.83.83,0,0,1-1.45,0l-.51-.92a.83.83,0,0,0-.33-.33l-.92-.5A.83.83,0,0,1,59.65,67.43Z"/><path class="cls-1" d="M58.08,48.65l.43-.24a.38.38,0,0,0,.15-.15l.23-.43a.38.38,0,0,1,.67,0l.24.43a.38.38,0,0,0,.15.15l.43.23a.38.38,0,0,1,0,.67l-.43.24a.38.38,0,0,0-.15.15l-.23.43a.38.38,0,0,1-.67,0l-.24-.43a.38.38,0,0,0-.15-.15l-.43-.23A.38.38,0,0,1,58.08,48.65Z"/><path class="cls-2" d="M8,10.74a2.95,2.95,0,1,1-3-2.93A3,3,0,0,1,8,10.74Zm-3.53,0a.58.58,0,1,0,.58-.58A.58.58,0,0,0,4.51,10.76Z"/><path class="cls-1" d="M6.46,27.05l1.29-.72a1.16,1.16,0,0,0,.46-.47l.7-1.3a1.16,1.16,0,0,1,2,0l.72,1.29a1.16,1.16,0,0,0,.47.46l1.3.7a1.16,1.16,0,0,1,0,2l-1.29.72a1.16,1.16,0,0,0-.46.47l-.7,1.3a1.16,1.16,0,0,1-2,0l-.72-1.29a1.16,1.16,0,0,0-.47-.46l-1.3-.7A1.16,1.16,0,0,1,6.46,27.05Z"/><circle class="cls-3" cx="21.78" cy="64.77" r="20.64"/><path d="M21.78,85.56A20.79,20.79,0,1,1,42.57,64.77,20.81,20.81,0,0,1,21.78,85.56Zm0-41.29a20.5,20.5,0,1,0,20.5,20.5A20.53,20.53,0,0,0,21.78,44.27Z"/><circle class="cls-4" cx="21.78" cy="64.77" r="20.64"/><path class="cls-5" d="M30.77,46.12A20.63,20.63,0,0,1,10.4,81.88,20.64,20.64,0,1,0,30.77,46.12Z"/><path class="cls-6" d="M21.78,86.55A21.78,21.78,0,1,1,43.57,64.77,21.81,21.81,0,0,1,21.78,86.55Zm0-41.29A19.51,19.51,0,1,0,41.29,64.77,19.53,19.53,0,0,0,21.78,45.26Z"/><path class="cls-6" d="M12.94,72.5c0,4.38,4.06,7.93,9.07,7.93s9.07-3.55,9.07-7.93h0a1.12,1.12,0,0,0-1.13-1.1H14.07a1.12,1.12,0,0,0-1.13,1.1Z"/><path class="cls-7" d="M22,79.65a11,11,0,0,1-4.43-.91,1.55,1.55,0,0,1-.74-2.18A5.87,5.87,0,0,1,22,73.86a5.87,5.87,0,0,1,5.17,2.71,1.55,1.55,0,0,1-.74,2.18A11,11,0,0,1,22,79.65Z"/><path class="cls-6" d="M22,74.86a4.86,4.86,0,0,1,4.29,2.19.55.55,0,0,1-.26.77,10.24,10.24,0,0,1-8.06,0,.55.55,0,0,1-.26-.77A4.86,4.86,0,0,1,22,74.86m0-2a6.88,6.88,0,0,0-6,3.22,2.55,2.55,0,0,0,1.21,3.58,12.24,12.24,0,0,0,9.66,0,2.55,2.55,0,0,0,1.21-3.58,6.88,6.88,0,0,0-6-3.22Z"/><path class="cls-6" d="M18.26,67.06a.84.84,0,0,1-.84-.84,3.8,3.8,0,0,0-7.59,0,.84.84,0,1,1-1.69,0,5.48,5.48,0,1,1,11,0A.84.84,0,0,1,18.26,67.06Z"/><path class="cls-6" d="M34.61,67.06a.84.84,0,0,1-.84-.84,3.8,3.8,0,0,0-7.59,0,.84.84,0,1,1-1.69,0,5.48,5.48,0,0,1,11,0A.84.84,0,0,1,34.61,67.06Z"/><path class="cls-6" d="M6.7,58.91A.84.84,0,0,1,6,57.56c.12-.16,3.07-4,9.4-3.06a.84.84,0,1,1-.24,1.67c-5.3-.76-7.71,2.28-7.81,2.41A.85.85,0,0,1,6.7,58.91Z"/><path class="cls-6" d="M36.63,58.91a.84.84,0,0,1-.67-.33c-.11-.14-2.52-3.17-7.81-2.41a.84.84,0,0,1-.24-1.67c6.33-.9,9.27,2.9,9.4,3.06a.84.84,0,0,1-.67,1.35Z"/><path class="cls-1" d="M89.46,1.25H37.57A4.25,4.25,0,0,0,33.32,5.5V29a5.54,5.54,0,0,0,5.54,5.54h5.7V46.66l10.1-12.15H87.76a6,6,0,0,0,5.95-5.95V5.5A4.25,4.25,0,0,0,89.46,1.25Z"/><path class="cls-8" d="M84.71,34.51h3.05a6.07,6.07,0,0,0,6.07-6.07V7.32a6.07,6.07,0,0,0-6.07-6.07H46.07"/><line class="cls-8" x1="77.48" y1="34.51" x2="79.25" y2="34.51"/><path class="cls-8" d="M39.51,1.25h0a6.07,6.07,0,0,0-6.07,6.07V28.45a6.07,6.07,0,0,0,6.07,6.07h5V45.58a.4.4,0,0,0,.7.26l9.4-11.32h16"/><circle class="cls-6" cx="77.75" cy="17.67" r="4.09"/><circle class="cls-6" cx="63.51" cy="17.67" r="4.09"/><circle class="cls-6" cx="49.28" cy="17.67" r="4.09"/></g></g></svg>