<svg xmlns="http://www.w3.org/2000/svg" viewBox="0 0 110.09 97.26"><defs><style>.cls-1{fill:#b7c0cc;}.cls-2,.cls-6{fill:#e9ecf2;}.cls-3{fill:#fff;}.cls-4,.cls-7{fill:none;}.cls-4{stroke:#253d4c;stroke-linecap:round;}.cls-10,.cls-4,.cls-5,.cls-6,.cls-7{stroke-miterlimit:10;stroke-width:2.5px;}.cls-5{fill:#009fea;}.cls-10,.cls-5,.cls-6,.cls-7{stroke:#222b3c;}.cls-8{fill:#f54350;}.cls-10,.cls-9{fill:#fdd800;}</style></defs><title>Asset 2</title><g id="Layer_2" data-name="Layer 2"><g id="Layer_1-2" data-name="Layer 1"><circle class="cls-1" cx="68.49" cy="47.09" r="41.6" transform="translate(-13.24 62.22) rotate(-45)"/><path class="cls-2" d="M29.75,33.07a9.25,9.25,0,0,1,12.65.4,16.33,16.33,0,0,1,1.49,2,18.66,18.66,0,0,1,25.36-.94L83.59,51.59l2.18,2.3c1.1.63-3.5,3.85-2.56,4.8s-.92,2.62-.34,3.55a14.6,14.6,0,0,1-1.45,17.32,10,10,0,0,1,2.41,6.23,41.37,41.37,0,0,0,9-4.92,12,12,0,0,0-1.45-2.73,6.66,6.66,0,0,0,.9-9.61,23.83,23.83,0,0,0,2-35.53A23.81,23.81,0,0,0,75,26.15q.33.5.62,1l-2-.82q.7-.12,1.41-.19a18.09,18.09,0,0,0-27-3.61,12.43,12.43,0,0,0-11-2.65,41.43,41.43,0,0,0-7.54,12.9Z"/><path class="cls-2" d="M75.66,27q-.3-.52-.63-1-.72.07-1.43.19Z"/><path class="cls-3" d="M81.94,80.29a15,15,0,0,0,1.49-17.8c-.6-1,1.19-2.82.35-3.65s3.77-4.28,2.63-4.93l-2.24-2.37L69.45,34a19.18,19.18,0,0,0-26.07,1,16.78,16.78,0,0,0-1.53-2,9.51,9.51,0,0,0-13-.42l-.37-.29A42.86,42.86,0,0,0,84.42,86.7,10.28,10.28,0,0,0,81.94,80.29Z"/><path class="cls-4" d="M62.3,84.17q1.25.14,2.51.21"/><path class="cls-4" d="M54.45,3.2a41.63,41.63,0,0,0-29,40.7q0,1.87.26,3.73"/><path class="cls-4" d="M70.75,84.29q1.14-.1,2.27-.26A41.6,41.6,0,0,0,62.71,1.48"/><path class="cls-2" d="M66.57,65.58l.21-.73a.6.6,0,0,0,0-.34l-.21-.73a.6.6,0,0,1,.74-.74l.73.21a.6.6,0,0,0,.34,0l.73-.21a.6.6,0,0,1,.74.74l-.21.73a.6.6,0,0,0,0,.34l.21.73a.6.6,0,0,1-.74.74l-.73-.21a.6.6,0,0,0-.34,0l-.73.21A.6.6,0,0,1,66.57,65.58Z"/><path class="cls-1" d="M19.85,61.48a3.89,3.89,0,1,1,0-5.5A3.89,3.89,0,0,1,19.85,61.48Zm-4-4a1.78,1.78,0,1,0,2.52,0A1.78,1.78,0,0,0,15.84,57.47Z"/><path class="cls-2" d="M1.43,69.6l1.36.4a1.11,1.11,0,0,0,.63,0l1.36-.4A1.11,1.11,0,0,1,6.15,71l-.4,1.36a1.11,1.11,0,0,0,0,.63l.4,1.36A1.11,1.11,0,0,1,4.77,75.7l-1.36-.4a1.11,1.11,0,0,0-.63,0l-1.36.4A1.11,1.11,0,0,1,0,74.32L.44,73a1.11,1.11,0,0,0,0-.63L0,71A1.11,1.11,0,0,1,1.43,69.6Z"/><path class="cls-2" d="M15.88,66.09l.92.27a.75.75,0,0,0,.42,0l.92-.27a.75.75,0,0,1,.94.94l-.27.92a.75.75,0,0,0,0,.42l.27.92a.75.75,0,0,1-.94.94L17.22,70a.75.75,0,0,0-.42,0l-.92.27a.75.75,0,0,1-.94-.94l.27-.92a.75.75,0,0,0,0-.42L14.94,67A.75.75,0,0,1,15.88,66.09Z"/><path class="cls-2" d="M18.3,87.29l.92.27a.75.75,0,0,0,.42,0l.92-.27a.75.75,0,0,1,.94.94l-.27.92a.75.75,0,0,0,0,.42l.27.92a.75.75,0,0,1-.94.94l-.92-.27a.75.75,0,0,0-.42,0l-.92.27a.75.75,0,0,1-.94-.94l.27-.92a.75.75,0,0,0,0-.42l-.27-.92A.75.75,0,0,1,18.3,87.29Z"/><path class="cls-1" d="M66.13,74.3a2.39,2.39,0,1,1,0-3.37A2.39,2.39,0,0,1,66.13,74.3Zm-1.88-1.88a.28.28,0,1,0,.39,0A.28.28,0,0,0,64.25,72.42Z"/><path class="cls-1" d="M36.71,55.79a2.39,2.39,0,1,1,0-3.37A2.39,2.39,0,0,1,36.71,55.79Zm-1.88-1.88a.28.28,0,1,0,.39,0A.28.28,0,0,0,34.83,53.91Z"/><path class="cls-1" d="M47.4,86.06a3.54,3.54,0,1,1-5,0A3.55,3.55,0,0,1,47.4,86.06Zm-3.52,3.52a1.43,1.43,0,1,0,0-2A1.43,1.43,0,0,0,43.89,89.57Z"/><path class="cls-2" d="M48.73,65.93l.18-.62a.51.51,0,0,0,0-.29l-.18-.62a.51.51,0,0,1,.63-.63L50,64a.51.51,0,0,0,.29,0l.62-.18a.51.51,0,0,1,.63.63l-.18.62a.51.51,0,0,0,0,.29l.18.62a.51.51,0,0,1-.63.63l-.62-.18a.51.51,0,0,0-.29,0l-.62.18A.51.51,0,0,1,48.73,65.93Z"/><path class="cls-2" d="M32.66,96.61l.18-.62a.51.51,0,0,0,0-.29l-.18-.62a.51.51,0,0,1,.63-.63l.62.18a.51.51,0,0,0,.29,0l.62-.18a.51.51,0,0,1,.63.63l-.18.62a.51.51,0,0,0,0,.29l.18.62a.51.51,0,0,1-.63.63l-.62-.18a.51.51,0,0,0-.29,0l-.62.18A.51.51,0,0,1,32.66,96.61Z"/><path class="cls-2" d="M58.14,89.25l-.26.9a.74.74,0,0,0,0,.41l.26.9a.74.74,0,0,1-.91.91l-.9-.26a.74.74,0,0,0-.41,0l-.9.26a.74.74,0,0,1-.91-.91l.26-.9a.74.74,0,0,0,0-.41l-.26-.9a.74.74,0,0,1,.91-.91l.9.26a.74.74,0,0,0,.41,0l.9-.26A.74.74,0,0,1,58.14,89.25Z"/><path class="cls-2" d="M38.85,43.2l.9.26a.74.74,0,0,0,.41,0l.9-.26a.74.74,0,0,1,.91.91l-.26.9a.74.74,0,0,0,0,.41l.26.9a.74.74,0,0,1-.91.91l-.9-.26a.74.74,0,0,0-.41,0l-.9.26a.74.74,0,0,1-.91-.91l.26-.9a.74.74,0,0,0,0-.41l-.26-.9A.74.74,0,0,1,38.85,43.2Z"/><path class="cls-2" d="M26.79,60.6l.42.12a.34.34,0,0,0,.19,0l.42-.12a.34.34,0,0,1,.42.42l-.12.42a.34.34,0,0,0,0,.19l.12.42a.34.34,0,0,1-.42.42l-.42-.12a.34.34,0,0,0-.19,0l-.42.12a.34.34,0,0,1-.42-.42l.12-.42a.34.34,0,0,0,0-.19L26.37,61A.34.34,0,0,1,26.79,60.6Z"/><path class="cls-1" d="M8.13,84.68a2.63,2.63,0,1,1,0-3.71A2.63,2.63,0,0,1,8.13,84.68ZM5.91,82.46a.52.52,0,1,0,.73,0A.52.52,0,0,0,5.91,82.46Z"/><path class="cls-5" d="M94.12,36.93l.41,6.14A2.18,2.18,0,0,1,94,44.64l-11.6,13c-.48.54-1.28.4-1.35-.24L79.93,47.33S85.55,39.59,94.12,36.93Z"/><path class="cls-5" d="M72.85,15.66l-6.14-.41a2.18,2.18,0,0,0-1.56.58l-13,11.6c-.54.48-.4,1.28.24,1.35l10.11,1.07S70.19,24.23,72.85,15.66Z"/><path class="cls-6" d="M59.83,34.3C77.56,1.15,100.47,3,104.77,3.66a1,1,0,0,1,.86.84c.76,4.34,3.11,27.76-30.08,45.52a1.5,1.5,0,0,1-1.78-.2L60,36.08A1.5,1.5,0,0,1,59.83,34.3Z"/><circle class="cls-3" cx="87.97" cy="21.81" r="5.74" transform="translate(10.34 68.59) rotate(-45)"/><path class="cls-2" d="M92.89,23.49a5.27,5.27,0,0,0-1.58-5.75c-.48-.41-.42.39.18,2.16.94,2.75-2.2,4.81-5.41,2.31-2.06-1.61-3.52-.07-3.26.91a5.26,5.26,0,0,0,10.06.37Z"/><circle class="cls-7" cx="87.97" cy="21.81" r="5.74" transform="translate(10.34 68.59) rotate(-45)"/><path class="cls-8" d="M72.06,47.13l-9.41-9.41-7.91,4.79c-.4.24-.27.89.23,1.15l1.93,1-6.3,4a.59.59,0,0,0,.15,1l2.13,1a.64.64,0,0,1,.35.76l-2.52,6.81a.64.64,0,0,0,.79.79l6.81-2.52a.64.64,0,0,1,.76.35l1,2.13a.59.59,0,0,0,1,.15l4-6.3,1,1.93c.26.5.91.63,1.15.23Z"/><path class="cls-9" d="M69.16,45.58l-5-5-4.68,3a.37.37,0,0,0,.08.64l1.06.49-3.74,2.53a.32.32,0,0,0,0,.56l1.17.5a.32.32,0,0,1,.17.42l-1.71,4a.32.32,0,0,0,.42.42l4-1.71a.32.32,0,0,1,.42.17l.5,1.17a.32.32,0,0,0,.56,0L65,49.13l.49,1.06a.37.37,0,0,0,.64.08Z"/><path class="cls-10" d="M105.6,4.47a1,1,0,0,0-.86-.84,30.27,30.27,0,0,0-10.86.53l11.39,11.39A31,31,0,0,0,105.6,4.47Z"/><path class="cls-5" d="M59.8,34.27A1.5,1.5,0,0,0,60,36L73.74,49.79a1.5,1.5,0,0,0,1.78.2c1.3-.7,2.53-1.41,3.73-2.12L61.91,30.54C61.2,31.73,60.49,33,59.8,34.27Z"/><line class="cls-4" x1="50.78" y1="70.53" x2="33.31" y2="88.01"/><line class="cls-4" x1="38.13" y1="71.65" x2="28.62" y2="81.16"/><line class="cls-4" x1="44.03" y1="54.22" x2="16.01" y2="82.23"/></g></g></svg>