<svg xmlns="http://www.w3.org/2000/svg" viewBox="0 0 114.48 77.81"><defs><style>.cls-1{fill:#e9ecf2;}.cls-2{fill:#b7c0cc;}.cls-3{fill:#fff;}.cls-4{fill:none;stroke:#222b3c;stroke-linecap:round;stroke-miterlimit:10;stroke-width:2.5px;}.cls-5{fill:#f43d58;}.cls-6{fill:#92cf26;}.cls-7{fill:#ffd124;}.cls-8{fill:#009fea;}.cls-9{fill:#222b3c;}</style></defs><title>global-settings-icon</title><g id="Layer_2" data-name="Layer 2"><g id="Layer_1-2" data-name="Layer 1"><path class="cls-1" d="M101.65,74l.44-.73a.67.67,0,0,0,.1-.37l0-.85a.67.67,0,0,1,1-.6l.73.44a.67.67,0,0,0,.37.1l.85,0a.67.67,0,0,1,.6,1l-.44.73a.67.67,0,0,0-.1.37l0,.85a.67.67,0,0,1-1,.6l-.73-.44a.67.67,0,0,0-.37-.1l-.85,0A.67.67,0,0,1,101.65,74Z"/><path class="cls-2" d="M98.07,71.78a2.68,2.68,0,1,1,1-3.66A2.68,2.68,0,0,1,98.07,71.78ZM96.56,69.2a.31.31,0,1,0,.42.11A.31.31,0,0,0,96.56,69.2Z"/><path class="cls-1" d="M87.39,72.68l.9.54a.83.83,0,0,0,.45.12l1,0a.83.83,0,0,1,.73,1.25l-.54.9a.83.83,0,0,0-.12.45l0,1a.83.83,0,0,1-1.25.73l-.9-.54a.83.83,0,0,0-.45-.12l-1,0a.83.83,0,0,1-.73-1.25l.54-.9a.83.83,0,0,0,.12-.45l0-1A.83.83,0,0,1,87.39,72.68Z"/><path class="cls-1" d="M113,68.31l.42.25a.38.38,0,0,0,.21.05h.49a.38.38,0,0,1,.34.58l-.25.42a.38.38,0,0,0-.05.21v.49a.38.38,0,0,1-.58.34l-.42-.25a.38.38,0,0,0-.21-.05h-.49a.38.38,0,0,1-.34-.58l.25-.42a.38.38,0,0,0,.05-.21v-.49A.38.38,0,0,1,113,68.31Z"/><path class="cls-1" d="M30,2.17l1-.49a.85.85,0,0,0,.34-.33l.54-.93a.85.85,0,0,1,1.48,0l.49,1a.85.85,0,0,0,.33.34l.93.54a.85.85,0,0,1,0,1.48l-1,.49a.85.85,0,0,0-.34.33l-.54.93a.85.85,0,0,1-1.48,0l-.49-1a.85.85,0,0,0-.33-.34L30,3.65A.85.85,0,0,1,30,2.17Z"/><path class="cls-1" d="M.2,13l.41-.21a.37.37,0,0,0,.15-.14l.23-.4a.37.37,0,0,1,.64,0l.21.41a.37.37,0,0,0,.14.15l.4.23a.37.37,0,0,1,0,.64L2,13.94a.37.37,0,0,0-.15.14l-.23.4a.37.37,0,0,1-.64,0l-.21-.41a.37.37,0,0,0-.14-.15l-.4-.23A.37.37,0,0,1,.2,13Z"/><path class="cls-2" d="M23.7,4.63a2.68,2.68,0,1,1-2.61-2.75A2.68,2.68,0,0,1,23.7,4.63Zm-3-.08a.31.31,0,1,0,.32-.3A.31.31,0,0,0,20.71,4.55Z"/><path class="cls-2" d="M16.65,18.24a2.95,2.95,0,1,1-2.87-3A3,3,0,0,1,16.65,18.24Zm-3.53-.09a.58.58,0,1,0,.59-.56A.58.58,0,0,0,13.13,18.14Z"/><path class="cls-1" d="M3.21,7.54l1.31-.67A1.16,1.16,0,0,0,5,6.41l.74-1.28a1.16,1.16,0,0,1,2,.05L8.45,6.5A1.16,1.16,0,0,0,8.9,7l1.28.74a1.16,1.16,0,0,1-.05,2l-1.31.67a1.16,1.16,0,0,0-.47.45L7.6,12.16a1.16,1.16,0,0,1-2-.05l-.67-1.31a1.16,1.16,0,0,0-.45-.47L3.16,9.58A1.16,1.16,0,0,1,3.21,7.54Z"/><polygon class="cls-2" points="105.55 63.47 61.17 63.47 30.12 63.47 30.12 14.07 105.55 14.07 105.55 63.47"/><path class="cls-3" d="M88.59,12.65H28.11a2,2,0,0,0-2,2V58.23a2,2,0,0,0,2,2H99.57a2,2,0,0,0,2-2V14.6a2,2,0,0,0-2-2H94.43"/><path class="cls-1" d="M88.59,12.65H28.11c-1.1,0-2,.12-2,.28v6.23c0,.15.89.28,2,.28H99.57c1.1,0,2-.12,2-.28V12.93c0-.15-.89-.28-2-.28H94.43"/><path class="cls-4" d="M58.27,60.18H28.11a2,2,0,0,1-2-2V13.86a2,2,0,0,1,2-2H99.57a2,2,0,0,1,2,2V58.2a2,2,0,0,1-2,2H97.44"/><line class="cls-4" x1="42.46" y1="19.44" x2="101.55" y2="19.44"/><line class="cls-4" x1="26.12" y1="19.44" x2="35.53" y2="19.44"/><circle class="cls-5" cx="30.14" cy="15.71" r="1.04"/><circle class="cls-6" cx="33.25" cy="15.71" r="1.04"/><circle class="cls-7" cx="36.64" cy="15.71" r="1.04"/><line class="cls-4" x1="47.35" y1="25.91" x2="54.17" y2="19.44"/><line class="cls-4" x1="34.9" y1="37.72" x2="43.49" y2="29.57"/><line class="cls-4" x1="54.17" y1="29.57" x2="64.86" y2="19.44"/><path class="cls-2" d="M79,45.18l1.4-1.33a.25.25,0,0,1,.3,0,9.39,9.39,0,0,0,2.1.87.25.25,0,0,1,.18.24l.06,1.93a.26.26,0,0,0,.21.25,11.81,11.81,0,0,0,2.48.19.26.26,0,0,0,.24-.21l.35-1.9a.25.25,0,0,1,.22-.2,9.67,9.67,0,0,0,2.21-.54.25.25,0,0,1,.29.08L90.23,46a.26.26,0,0,0,.31.08,11.93,11.93,0,0,0,2.12-1.3.26.26,0,0,0,.07-.32l-.83-1.74a.25.25,0,0,1,.06-.29,9.57,9.57,0,0,0,1.47-1.73.25.25,0,0,1,.28-.1l1.86.54a.26.26,0,0,0,.3-.12,11.46,11.46,0,0,0,1-2.3.26.26,0,0,0-.12-.3L95,37.54a.25.25,0,0,1-.13-.27A9.57,9.57,0,0,0,95,35a.25.25,0,0,1,.17-.25L97,34.11a.26.26,0,0,0,.17-.28,11.93,11.93,0,0,0-.59-2.42.26.26,0,0,0-.28-.17l-1.92.25a.25.25,0,0,1-.26-.15A9.67,9.67,0,0,0,93,29.42a.25.25,0,0,1,0-.3l1.09-1.6a.26.26,0,0,0,0-.32,11.81,11.81,0,0,0-1.89-1.61.26.26,0,0,0-.32,0l-1.4,1.33a.25.25,0,0,1-.3,0,9.43,9.43,0,0,0-2.1-.87.25.25,0,0,1-.19-.23l-.06-1.93a.26.26,0,0,0-.21-.25,11.81,11.81,0,0,0-2.48-.19.26.26,0,0,0-.24.21l-.35,1.9a.25.25,0,0,1-.22.2,9.66,9.66,0,0,0-2.21.54.25.25,0,0,1-.29-.08L80.6,24.75a.26.26,0,0,0-.31-.08A11.93,11.93,0,0,0,78.16,26a.26.26,0,0,0-.07.31L78.92,28a.25.25,0,0,1-.06.29,9.57,9.57,0,0,0-1.47,1.73.25.25,0,0,1-.28.1l-1.86-.55a.26.26,0,0,0-.3.12A11.46,11.46,0,0,0,74,32a.26.26,0,0,0,.12.3l1.7.92a.25.25,0,0,1,.13.27,9.57,9.57,0,0,0-.18,2.26.25.25,0,0,1-.17.25l-1.82.65a.26.26,0,0,0-.17.28,11.93,11.93,0,0,0,.59,2.42.26.26,0,0,0,.28.17l1.92-.25a.25.25,0,0,1,.26.15,9.66,9.66,0,0,0,1.19,1.94.25.25,0,0,1,0,.3l-1.09,1.6a.26.26,0,0,0,0,.32,11.81,11.81,0,0,0,1.89,1.61A.26.26,0,0,0,79,45.18Zm7.07-3.51.19-2.49a3.82,3.82,0,0,0,2.1-1.31l2.33,1A6.31,6.31,0,0,1,86.08,41.67Zm.14-8.16a2.12,2.12,0,1,1-2.77,1.15A2.12,2.12,0,0,1,86.22,33.51Zm5.36,3.19-2.37-1a3.82,3.82,0,0,0-.59-2.31l1.69-2A6.31,6.31,0,0,1,91.58,36.7Zm-3.76-7.13a6.31,6.31,0,0,1,.74.37l-1.7,2a3.79,3.79,0,0,0-2.32-.18l-1.38-2.24A6.28,6.28,0,0,1,87.82,29.57ZM79.59,33a6.27,6.27,0,0,1,1.61-2.27l1.36,2.22a3.77,3.77,0,0,0-.95,2.19l-2.48.6A6.26,6.26,0,0,1,79.59,33Zm.08,5,2.45-.59A3.79,3.79,0,0,0,84,39h0l-.19,2.48A6.19,6.19,0,0,1,79.67,38Z"/><path class="cls-2" d="M58,50.85l-1.68,1a.36.36,0,0,1-.48-.09l-1.76-2.31a.3.3,0,0,1,0-.46l1.34-1.39a6.83,6.83,0,0,1-.19-1.4l-1.65-1a.32.32,0,0,1-.14-.46l1.1-2.67a.35.35,0,0,1,.42-.23l1.86.47A5.55,5.55,0,0,1,58,41.45l0-1.93q0-.32.29-.36l2.88-.39a.36.36,0,0,1,.4.28l.52,1.86q.39.12.67.24t.65.3l1.68-1a.36.36,0,0,1,.48.09l1.76,2.31a.31.31,0,0,1,0,.46L66,44.74a6.83,6.83,0,0,1,.19,1.4l1.65,1a.35.35,0,0,1,.14.46l-1.1,2.67a.32.32,0,0,1-.42.23L64.56,50a5.55,5.55,0,0,1-1.12.86l0,1.93q0,.32-.29.36l-2.88.39a.36.36,0,0,1-.4-.28l-.52-1.86A3.77,3.77,0,0,1,58,50.85Zm1.73-7a2.54,2.54,0,1,0,1.95,0A2.43,2.43,0,0,0,59.73,43.82Z"/><path class="cls-8" d="M79.18,68.87A1.25,1.25,0,0,1,78,68l-.49-1.71a13.42,13.42,0,0,1-4.11-.81l-1.1,1.39a1.25,1.25,0,0,1-1.67.27l-3.08-2a1.25,1.25,0,0,1-.4-1.65L68,61.84a13.36,13.36,0,0,1-2.27-3.41l-1.81.21h-.15a1.25,1.25,0,0,1-1.22-1L61.82,54a1.25,1.25,0,0,1,.88-1.45l1.76-.51a13.36,13.36,0,0,1,.79-4l-1.44-1.13a1.25,1.25,0,0,1-.27-1.67l2-3.08a1.25,1.25,0,0,1,1.65-.4l1.6.88a13.37,13.37,0,0,1,3.44-2.31l-.21-1.76a1.25,1.25,0,0,1,1-1.37l3.62-.73.25,0a1.25,1.25,0,0,1,1.2.9l.49,1.71a13.43,13.43,0,0,1,4,.77l1.1-1.39a1.25,1.25,0,0,1,1.67-.27l3.08,2a1.25,1.25,0,0,1,.4,1.64L88,43.41a13.37,13.37,0,0,1,2.33,3.45l1.72-.2h.15a1.25,1.25,0,0,1,1.22,1l.73,3.62a1.25,1.25,0,0,1-.88,1.45l-1.65.48a13.37,13.37,0,0,1-.8,4.11l1.34,1.06A1.25,1.25,0,0,1,92.45,60l-2,3.08a1.25,1.25,0,0,1-1.65.4l-1.5-.83A13.35,13.35,0,0,1,83.84,65L84,66.74a1.25,1.25,0,0,1-1,1.37l-3.62.73Zm-1.12-22.2a6,6,0,1,0,5.87,4.81A6,6,0,0,0,78.06,46.67Z"/><path class="cls-9" d="M76.92,37.72l.75,2.6h.4a12.27,12.27,0,0,1,4.95,1l1.67-2.12,3.08,2-1.3,2.35a12.28,12.28,0,0,1,3.1,4.58l2.65-.31.73,3.62-2.55.74a12.27,12.27,0,0,1-1.06,5.45l2.08,1.64-2,3.08L87,61.14a12.28,12.28,0,0,1-4.56,3.06l.32,2.69-3.62.73L78.43,65H78A12.28,12.28,0,0,1,73,63.94L71.3,66.07l-3.08-2,1.32-2.39a12.28,12.28,0,0,1-3-4.55l-2.74.32L63,53.78,65.7,53a12.28,12.28,0,0,1,1-5.35L64.58,46l2-3.08L69,44.22a12.28,12.28,0,0,1,4.57-3.07l-.32-2.69,3.62-.73M78,59.92a7.25,7.25,0,1,0-7.1-5.82A7.29,7.29,0,0,0,78,59.92m-1.12-24.7a2.51,2.51,0,0,0-.5,0L72.8,36a2.5,2.5,0,0,0-2,2.74l.11.89a14.58,14.58,0,0,0-2.25,1.52l-.83-.46a2.5,2.5,0,0,0-3.29.81l-2,3.08A2.5,2.5,0,0,0,63,47.92l.75.6a14.62,14.62,0,0,0-.51,2.6l-.92.27a2.5,2.5,0,0,0-1.76,2.9l.73,3.62a2.5,2.5,0,0,0,2.45,2l.29,0,.94-.11A14.6,14.6,0,0,0,66.49,62l-.45.82a2.5,2.5,0,0,0,.81,3.29l3.08,2a2.5,2.5,0,0,0,3.35-.53l.56-.71a14.62,14.62,0,0,0,2.71.54l.25.87a2.5,2.5,0,0,0,2.9,1.76l3.62-.73a2.5,2.5,0,0,0,2-2.74l-.11-.89a14.57,14.57,0,0,0,2.24-1.5l.74.41a2.5,2.5,0,0,0,3.29-.81l2-3.08A2.5,2.5,0,0,0,93,57.38l-.66-.52a14.57,14.57,0,0,0,.53-2.71l.81-.23A2.5,2.5,0,0,0,95.4,51l-.73-3.62a2.5,2.5,0,0,0-2.45-2l-.29,0-.85.1a14.57,14.57,0,0,0-1.53-2.27l.42-.76a2.5,2.5,0,0,0-.81-3.29l-3.08-2a2.5,2.5,0,0,0-3.35.53l-.56.71a14.63,14.63,0,0,0-2.6-.5L79.32,37a2.5,2.5,0,0,0-2.4-1.81ZM78,57.42a4.76,4.76,0,1,1,.95-.1,4.76,4.76,0,0,1-.95.1Z"/></g></g></svg>