<svg xmlns="http://www.w3.org/2000/svg" viewBox="0 0 108.8 71.07"><defs><style>.cls-1{fill:#009fea;}.cls-2,.cls-6{fill:none;stroke:#222b3c;stroke-linecap:round;stroke-width:2.5px;}.cls-2{stroke-miterlimit:10;}.cls-3{fill:#fdd800;}.cls-4{fill:#e9ecf2;}.cls-5{fill:#b7c0cc;}.cls-6{stroke-linejoin:round;}.cls-7{fill:#222b3c;}.cls-8{fill:#fff;}</style></defs><title>Asset 16</title><g id="Layer_2" data-name="Layer 2"><g id="Layer_1-2" data-name="Layer 1"><path class="cls-1" d="M19.21,21.57H45a0,0,0,0,1,0,0V44.92a2.31,2.31,0,0,1-2.31,2.31H21a1.75,1.75,0,0,1-1.75-1.75V21.57A0,0,0,0,1,19.21,21.57Z"/><path class="cls-2" d="M40.06,47.23h3.37a1.67,1.67,0,0,0,1.67-1.67V23.24a1.67,1.67,0,0,0-1.67-1.67H29.54"/><line class="cls-2" x1="34.81" y1="47.23" x2="36.44" y2="47.23"/><path class="cls-2" d="M24.9,21.57H21a1.67,1.67,0,0,0-1.67,1.67V45.56A1.67,1.67,0,0,0,21,47.23h8.82"/><path class="cls-3" d="M63.86,21.57V47.35H87.76a1.75,1.75,0,0,0,1.75-1.75V23.88a2.31,2.31,0,0,0-2.31-2.31Z"/><path class="cls-2" d="M89.52,27.17v-4a1.67,1.67,0,0,0-1.67-1.67H65.53a1.67,1.67,0,0,0-1.67,1.67V37.7"/><line class="cls-2" x1="89.52" y1="32.43" x2="89.52" y2="30.8"/><path class="cls-2" d="M63.86,42.33v3.23a1.67,1.67,0,0,0,1.67,1.67H87.84a1.67,1.67,0,0,0,1.67-1.67V37.41"/><path class="cls-4" d="M9.52,6.45,9.1,5.7a.67.67,0,0,0-.27-.27L8.08,5a.67.67,0,0,1,0-1.18l.75-.41a.67.67,0,0,0,.27-.27l.41-.75a.67.67,0,0,1,1.18,0l.41.75a.67.67,0,0,0,.27.27l.75.41a.67.67,0,0,1,0,1.18l-.75.41a.67.67,0,0,0-.27.27l-.41.75A.67.67,0,0,1,9.52,6.45Z"/><path class="cls-4" d="M99.55,59.79l.94-.52a.85.85,0,0,0,.33-.34l.51-.95a.85.85,0,0,1,1.48,0l.52.94a.85.85,0,0,0,.34.33l.95.51a.85.85,0,0,1,0,1.48l-.94.52a.85.85,0,0,0-.33.34l-.51.95a.85.85,0,0,1-1.48,0l-.52-.94a.85.85,0,0,0-.34-.33l-.95-.51A.85.85,0,0,1,99.55,59.79Z"/><path class="cls-4" d="M106.41,47.1l.41-.23a.37.37,0,0,0,.14-.15l.22-.41a.37.37,0,0,1,.64,0l.23.41a.37.37,0,0,0,.15.14l.41.22a.37.37,0,0,1,0,.64l-.41.23a.37.37,0,0,0-.14.15l-.22.41a.37.37,0,0,1-.64,0L107,48.1a.37.37,0,0,0-.15-.14l-.41-.22A.37.37,0,0,1,106.41,47.1Z"/><path class="cls-5" d="M101.75,50a2.68,2.68,0,1,1-2.7-2.66A2.68,2.68,0,0,1,101.75,50Zm-3,0a.31.31,0,1,0,.31-.31A.31.31,0,0,0,98.76,50.07Z"/><path class="cls-5" d="M8.49,11.77A2.68,2.68,0,1,1,5.8,9.11,2.68,2.68,0,0,1,8.49,11.77Zm-3,0a.31.31,0,1,0,.31-.31A.31.31,0,0,0,5.51,11.79Z"/><path class="cls-5" d="M18,7.81a4,4,0,1,1-4,4A4,4,0,0,1,18,7.81Zm0,5.59a1.61,1.61,0,1,0-1.62-1.6A1.61,1.61,0,0,0,18.06,13.4Z"/><path class="cls-4" d="M.43,19.08l.92-.51a.83.83,0,0,0,.33-.33l.5-.92a.83.83,0,0,1,1.45,0l.51.92a.83.83,0,0,0,.33.33l.92.5a.83.83,0,0,1,0,1.45L4.47,21a.83.83,0,0,0-.33.33l-.5.92a.83.83,0,0,1-1.45,0l-.51-.92A.83.83,0,0,0,1.36,21l-.92-.5A.83.83,0,0,1,.43,19.08Z"/><path class="cls-4" d="M.41,1,.83.78A.38.38,0,0,0,1,.63L1.22.2a.38.38,0,0,1,.67,0l.24.43a.38.38,0,0,0,.15.15L2.71,1a.38.38,0,0,1,0,.67l-.43.24a.38.38,0,0,0-.15.15L1.9,2.5a.38.38,0,0,1-.67,0L1,2.07a.38.38,0,0,0-.15-.15L.41,1.69A.38.38,0,0,1,.41,1Z"/><path class="cls-5" d="M97.26,68.11a2.95,2.95,0,1,1-3-2.93A3,3,0,0,1,97.26,68.11Zm-3.53,0a.58.58,0,1,0,.58-.58A.58.58,0,0,0,93.73,68.13Z"/><path class="cls-4" d="M86.34,56.43l1.29-.72a1.16,1.16,0,0,0,.46-.47l.7-1.3a1.16,1.16,0,0,1,2,0l.72,1.29a1.16,1.16,0,0,0,.47.46l1.3.7a1.16,1.16,0,0,1,0,2L92,59.14a1.16,1.16,0,0,0-.46.47l-.7,1.3a1.16,1.16,0,0,1-2,0l-.72-1.29a1.16,1.16,0,0,0-.47-.46l-1.3-.7A1.16,1.16,0,0,1,86.34,56.43Z"/><path class="cls-2" d="M32.56,54.72v8a2.7,2.7,0,0,0,2.7,2.7H74a2.7,2.7,0,0,0,2.7-2.7v-8"/><line class="cls-6" x1="72.15" y1="57.87" x2="76.69" y2="52.89"/><line class="cls-6" x1="81.22" y1="57.87" x2="76.69" y2="52.89"/><path class="cls-2" d="M76.69,13.53v-8A2.7,2.7,0,0,0,74,2.83H35.26a2.7,2.7,0,0,0-2.7,2.7v8"/><line class="cls-6" x1="37.1" y1="10.38" x2="32.56" y2="15.37"/><line class="cls-6" x1="28.03" y1="10.38" x2="32.56" y2="15.37"/><path class="cls-7" d="M81.69,34.73l1.28,1a.3.3,0,0,1,.09.4l-1.23,2.11a.25.25,0,0,1-.37.11l-1.51-.6a5.74,5.74,0,0,1-1,.6l-.23,1.6a.27.27,0,0,1-.31.26H76a.29.29,0,0,1-.31-.26l-.23-1.6a4.67,4.67,0,0,1-1-.6l-1.51.6a.28.28,0,0,1-.37-.11l-1.23-2.11a.3.3,0,0,1,.09-.4l1.28-1q0-.34,0-.6t0-.6l-1.28-1a.3.3,0,0,1-.09-.4L72.5,30a.26.26,0,0,1,.37-.11l1.51.6a5.74,5.74,0,0,1,1-.6l.23-1.6a.29.29,0,0,1,.31-.26h2.42a.27.27,0,0,1,.31.26l.23,1.6a4.67,4.67,0,0,1,1,.6l1.51-.6a.28.28,0,0,1,.37.11l1.23,2.11a.3.3,0,0,1-.09.4l-1.28,1a3.17,3.17,0,0,1,0,1.2Zm-6,.91A2.13,2.13,0,1,0,75,34.13,2,2,0,0,0,75.67,35.64Z"/><path class="cls-8" d="M36.62,34.73l1.28,1a.3.3,0,0,1,.09.4l-1.23,2.11a.25.25,0,0,1-.37.11l-1.51-.6a5.74,5.74,0,0,1-1,.6l-.23,1.6a.27.27,0,0,1-.31.26H30.89a.29.29,0,0,1-.31-.26l-.23-1.6a4.67,4.67,0,0,1-1-.6l-1.51.6a.28.28,0,0,1-.37-.11l-1.23-2.11a.3.3,0,0,1,.09-.4l1.28-1q0-.34,0-.6t0-.6l-1.28-1a.3.3,0,0,1-.09-.4L27.44,30a.26.26,0,0,1,.37-.11l1.51.6a5.74,5.74,0,0,1,1-.6l.23-1.6a.29.29,0,0,1,.31-.26h2.42a.27.27,0,0,1,.31.26l.23,1.6a4.67,4.67,0,0,1,1,.6l1.51-.6a.28.28,0,0,1,.37.11L38,32.13a.3.3,0,0,1-.09.4l-1.28,1a3.17,3.17,0,0,1,0,1.2Zm-6,.91A2.13,2.13,0,1,0,30,34.13,2,2,0,0,0,30.61,35.64Z"/></g></g></svg>