<svg xmlns="http://www.w3.org/2000/svg" viewBox="0 0 129.55 70.51"><defs><style>.cls-1{fill:#b7c0cc;}.cls-2{fill:#e9ecf2;}.cls-3,.cls-6{fill:none;stroke:#222b3c;stroke-linecap:round;stroke-width:2.5px;}.cls-3{stroke-linejoin:round;}.cls-4{fill:#009fea;}.cls-5{fill:#fdd800;}.cls-6{stroke-miterlimit:10;}</style></defs><title>megaphone-icon</title><g id="Layer_2" data-name="Layer 2"><g id="Layer_1-2" data-name="Layer 1"><path class="cls-1" d="M22,69.26H15.16A4.14,4.14,0,0,1,11,65.12V49.65H24.58l.85,3.29a2.81,2.81,0,0,1,0,1.4L24.75,57a2.81,2.81,0,0,0,0,1.38L25.41,61a2.81,2.81,0,0,1,0,1.52l-.56,1.77a2.81,2.81,0,0,0,0,1.5h0A2.81,2.81,0,0,1,22,69.26Z"/><path class="cls-2" d="M18,69.26H15.16A4.14,4.14,0,0,1,11,65.12V49.65h9.56l.85,3.29a2.81,2.81,0,0,1,0,1.4L20.75,57a2.81,2.81,0,0,0,0,1.38L21.41,61a2.81,2.81,0,0,1,0,1.52l-.56,1.77a2.81,2.81,0,0,0,0,1.5h0A2.81,2.81,0,0,1,18,69.26Z"/><path class="cls-3" d="M24.5,49.65l.85,3.29a2.81,2.81,0,0,1,0,1.4L24.67,57a2.81,2.81,0,0,0,0,1.38L25.33,61a2.81,2.81,0,0,1,0,1.52l-.56,1.77a2.81,2.81,0,0,0,0,1.5h0A2.81,2.81,0,0,1,22,69.26H19.08"/><path class="cls-2" d="M61.72,8.15c-1.92,0-5.92,3.63-6.2,4-5.23,6.22-16,10.52-23.72,12.42h0a44.24,44.24,0,0,1-4.81.92V25c-1.11-2.25-2.57-3.62-4.18-3.62H12.22c-2.28,0-5.36,6.83-5.36,6.83a7.27,7.27,0,0,0-5.62,7.35,7.27,7.27,0,0,0,5.61,7.35s3.08,6.83,5.36,6.83h10.6c1.61,0,3.07-1.37,4.18-3.62v-.55a44.26,44.26,0,0,1,4.81.92h0c7.77,1.89,18.49,6.19,23.72,12.41.28.39.86,1.1.87,1.11s3.41,2.91,5.33,2.91c6.56,0,11.88-12.26,11.88-27.37S68.28,8.15,61.72,8.15Z"/><path class="cls-4" d="M6.86,28.12a7.27,7.27,0,0,0-5.61,7.35,7.27,7.27,0,0,0,5.61,7.35"/><ellipse class="cls-1" cx="61.72" cy="35.46" rx="11.88" ry="27.38"/><path class="cls-2" d="M73.6,35.46c0-5.32-1.22-10.93-1.5-13.31-13.88,0-22.21,10.94-22.21,10.94,0,20.36,5.27,29.75,11.83,29.75S73.6,50.58,73.6,35.46Z"/><path class="cls-5" d="M50.48,43a7.49,7.49,0,0,0,0-15"/><path class="cls-4" d="M31.81,46.41a30,30,0,0,1-2-10.94,30,30,0,0,1,2-10.94l7.65-2.37a26.19,26.19,0,0,0-3.15,12.76,25.59,25.59,0,0,0,3.9,14Z"/><path class="cls-1" d="M27,46c-1.11,2.25-2.57,3.62-4.18,3.62-3.46,0-6.26-6.35-6.26-14.18s2.8-14.18,6.26-14.18c1.61,0,3.07,1.37,4.18,3.62,0,0-5.22-.77-5.22,10.57S27,46,27,46Z"/><path class="cls-2" d="M91.36,40.83l.75-.41a.67.67,0,0,0,.27-.27l.41-.75a.67.67,0,0,1,1.18,0l.41.75a.67.67,0,0,0,.27.27l.75.41a.67.67,0,0,1,0,1.18l-.75.41a.67.67,0,0,0-.27.27l-.41.75a.67.67,0,0,1-1.18,0l-.41-.75a.67.67,0,0,0-.27-.27L91.36,42A.67.67,0,0,1,91.36,40.83Z"/><path class="cls-2" d="M109.13,22.93l.75-.41a.67.67,0,0,0,.27-.27l.41-.75a.67.67,0,0,1,1.18,0l.41.75a.67.67,0,0,0,.27.27l.75.41a.67.67,0,0,1,0,1.18l-.75.41a.67.67,0,0,0-.27.27l-.41.75a.67.67,0,0,1-1.18,0l-.41-.75a.67.67,0,0,0-.27-.27l-.75-.41A.67.67,0,0,1,109.13,22.93Z"/><path class="cls-1" d="M123.73,56.07a4.37,4.37,0,1,1,4.37-4.37A4.37,4.37,0,0,1,123.73,56.07Zm0-6.36a2,2,0,1,0,2,2A2,2,0,0,0,123.73,49.71Z"/><path class="cls-2" d="M124.05,32.72l-.76-1.39a1.25,1.25,0,0,0-.5-.5l-1.39-.76a1.25,1.25,0,0,1,0-2.19l1.39-.76a1.25,1.25,0,0,0,.5-.5l.76-1.39a1.25,1.25,0,0,1,2.19,0l.76,1.39a1.25,1.25,0,0,0,.5.5l1.39.76a1.25,1.25,0,0,1,0,2.19l-1.39.76a1.25,1.25,0,0,0-.5.5l-.76,1.39A1.25,1.25,0,0,1,124.05,32.72Z"/><path class="cls-2" d="M107,55.16l-.52-.94a.85.85,0,0,0-.34-.34l-.94-.52a.85.85,0,0,1,0-1.48l.94-.52a.85.85,0,0,0,.34-.34l.52-.94a.85.85,0,0,1,1.48,0L109,51a.85.85,0,0,0,.34.34l.94.52a.85.85,0,0,1,0,1.48l-.94.52a.85.85,0,0,0-.34.34l-.52.94A.85.85,0,0,1,107,55.16Z"/><path class="cls-2" d="M102.4,16.26l-.66-1.2a1.07,1.07,0,0,0-.43-.43l-1.2-.66a1.07,1.07,0,0,1,0-1.89l1.2-.66a1.07,1.07,0,0,0,.43-.43l.66-1.2a1.07,1.07,0,0,1,1.89,0l.66,1.2a1.07,1.07,0,0,0,.43.43l1.2.66a1.07,1.07,0,0,1,0,1.89l-1.2.66a1.07,1.07,0,0,0-.43.43l-.66,1.2A1.07,1.07,0,0,1,102.4,16.26Z"/><path class="cls-1" d="M98.86,23.52a2.68,2.68,0,1,1-2.68,2.68A2.68,2.68,0,0,1,98.86,23.52Zm0,3a.31.31,0,1,0-.31-.31A.31.31,0,0,0,98.86,26.5Z"/><path class="cls-1" d="M112.17,44.1a2.68,2.68,0,1,1,2.68-2.68A2.68,2.68,0,0,1,112.17,44.1Zm0-3a.31.31,0,1,0,.31.31A.31.31,0,0,0,112.17,41.11Z"/><path class="cls-1" d="M114.77,12.84a4,4,0,1,1,4,4A4,4,0,0,1,114.77,12.84Zm5.59,0a1.61,1.61,0,1,0-1.61,1.61A1.61,1.61,0,0,0,120.36,12.84Z"/><path class="cls-2" d="M82.5,53.21l.64-.35a.57.57,0,0,0,.23-.23l.35-.64a.57.57,0,0,1,1,0l.35.64a.57.57,0,0,0,.23.23l.64.35a.57.57,0,0,1,0,1l-.64.35a.57.57,0,0,0-.23.23l-.35.64a.57.57,0,0,1-1,0l-.35-.64a.57.57,0,0,0-.23-.23l-.64-.35A.57.57,0,0,1,82.5,53.21Z"/><path class="cls-2" d="M116.1,66.45l-.92.5a.83.83,0,0,0-.33.33l-.5.92a.83.83,0,0,1-1.45,0l-.5-.92a.83.83,0,0,0-.33-.33l-.92-.5a.83.83,0,0,1,0-1.45l.92-.5a.83.83,0,0,0,.33-.33l.5-.92a.83.83,0,0,1,1.45,0l.5.92a.83.83,0,0,0,.33.33l.92.5A.83.83,0,0,1,116.1,66.45Z"/><path class="cls-2" d="M110,5.39l-.5-.92a.83.83,0,0,0-.33-.33l-.92-.5a.83.83,0,0,1,0-1.45l.92-.5a.83.83,0,0,0,.33-.33l.5-.92a.83.83,0,0,1,1.45,0l.5.92a.83.83,0,0,0,.33.33l.92.5a.83.83,0,0,1,0,1.45l-.92.5a.83.83,0,0,0-.33.33l-.5.92A.83.83,0,0,1,110,5.39Z"/><path class="cls-2" d="M91.11,13.31l-.23-.43a.38.38,0,0,0-.15-.15l-.43-.23a.38.38,0,0,1,0-.67l.43-.23a.38.38,0,0,0,.15-.15l.23-.43a.38.38,0,0,1,.67,0l.23.43a.38.38,0,0,0,.15.15l.43.23a.38.38,0,0,1,0,.67l-.43.23a.38.38,0,0,0-.15.15l-.23.43A.38.38,0,0,1,91.11,13.31Z"/><path class="cls-1" d="M97,58.09A2.95,2.95,0,1,1,100,55.14,3,3,0,0,1,97,58.09Zm0-3.53a.58.58,0,1,0,.58.58A.58.58,0,0,0,97,54.56Z"/><ellipse class="cls-6" cx="61.72" cy="35.46" rx="11.88" ry="27.38"/><path class="cls-6" d="M24.72,25.62c-2.11,0-3.83,4.41-3.83,9.85s1.71,9.85,3.83,9.85"/><path class="cls-6" d="M27,46c-1.11,2.25-2.57,3.62-4.18,3.62-3.46,0-6.26-6.35-6.26-14.18s2.8-14.18,6.26-14.18c1.61,0,3.07,1.37,4.18,3.62"/><path class="cls-6" d="M22.82,21.28H12.22C8.76,21.28,6,27.63,6,35.46s2.8,14.18,6.26,14.18h10.6"/><path class="cls-6" d="M56.39,11c-6.55,9.26-25.49,14.62-31.67,14.62"/><path class="cls-6" d="M56.39,59.93c-6.55-9.26-25.49-14.62-31.67-14.62"/><path class="cls-6" d="M6.86,28.12a7.27,7.27,0,0,0-5.61,7.35,7.27,7.27,0,0,0,5.61,7.35"/><path class="cls-6" d="M31.81,24.52a30,30,0,0,0-2,10.94,30,30,0,0,0,2,10.94"/><path class="cls-6" d="M39.45,22.15a26.19,26.19,0,0,0-3.15,12.76,25.59,25.59,0,0,0,3.9,14"/><path class="cls-6" d="M50.48,43a7.49,7.49,0,0,0,0-15"/><path class="cls-3" d="M17.8,69.26H14.92a4.14,4.14,0,0,1-4.14-4.14V49.65h9.56l.85,3.29a2.81,2.81,0,0,1,0,1.4L20.51,57a2.81,2.81,0,0,0,0,1.38L21.17,61a2.81,2.81,0,0,1,0,1.52l-.56,1.77a2.81,2.81,0,0,0,0,1.5h0A2.81,2.81,0,0,1,17.8,69.26Z"/><line class="cls-6" x1="90.98" y1="5.36" x2="93.38" y2="4.37"/><line class="cls-6" x1="77.75" y1="10.81" x2="87.51" y2="6.79"/><line class="cls-6" x1="77.75" y1="57.59" x2="92.69" y2="63.75"/><line class="cls-6" x1="91.47" y1="34.2" x2="106.26" y2="34.2"/><line class="cls-6" x1="80.9" y1="34.2" x2="87.51" y2="34.2"/><line class="cls-6" x1="80.43" y1="22.51" x2="90.45" y2="20.51"/><line class="cls-6" x1="86.31" y1="47.07" x2="93.02" y2="48.41"/><line class="cls-6" x1="80.43" y1="45.89" x2="82.63" y2="46.33"/></g></g></svg>