<svg xmlns="http://www.w3.org/2000/svg" viewBox="0 0 125.29 95.79"><defs><style>.cls-1{fill:#b7c0cc;}.cls-2{fill:#e9ecf2;}.cls-3{fill:none;stroke-linecap:round;}.cls-11,.cls-3{stroke:#222b3c;stroke-miterlimit:10;stroke-width:2.5px;}.cls-4{fill:#fff;}.cls-5{opacity:0.25;}.cls-6{fill:#253d4c;}.cls-7{fill:#222b3c;}.cls-8{fill:#f43d58;}.cls-9{fill:#92cf26;}.cls-10{fill:#ffd124;}.cls-11{fill:#fdd800;}</style></defs><title>Asset 5</title><g id="Layer_2" data-name="Layer 2"><g id="Layer_1-2" data-name="Layer 1"><path class="cls-1" d="M116.83,30.6V28.5a1.75,1.75,0,0,0-1.75-1.75h-5.45V24a2.47,2.47,0,0,0-.17-.87V21.48H27.27v5.26h-7V30.6H13.65V70.39h6.66v3.85l7,0V79.5h82.36V74.24h7.2V70.38h6.66V30.61Z"/><path class="cls-2" d="M9.65,27.07H66a0,0,0,0,1,0,0V64.53a2.31,2.31,0,0,1-2.31,2.31H11.41a1.75,1.75,0,0,1-1.75-1.75v-38A0,0,0,0,1,9.65,27.07Z"/><path class="cls-3" d="M56.19,66.84h8.22a1.7,1.7,0,0,0,1.7-1.7V42"/><line class="cls-3" x1="50.86" y1="66.84" x2="52.51" y2="66.84"/><path class="cls-3" d="M45.79,66.84H11.47a1.7,1.7,0,0,1-1.7-1.7V28.77a1.7,1.7,0,0,1,1.7-1.7H64.41a1.7,1.7,0,0,1,1.7,1.7v4.55"/><path class="cls-2" d="M16.31,23.2H83.6a0,0,0,0,1,0,0V68.39a2.31,2.31,0,0,1-2.31,2.31H18.07A1.75,1.75,0,0,1,16.31,69V23.2A0,0,0,0,1,16.31,23.2Z"/><path class="cls-3" d="M71.89,70.7h9.82a2,2,0,0,0,2-2V41"/><line class="cls-3" x1="65.52" y1="70.7" x2="67.49" y2="70.7"/><path class="cls-3" d="M59.47,70.7h-41a2,2,0,0,1-2-2V25.23a2,2,0,0,1,2-2H81.71a2,2,0,0,1,2,2v5.44"/><path class="cls-2" d="M63.15,27.07h56.34a0,0,0,0,1,0,0V64.53a2.31,2.31,0,0,1-2.31,2.31H64.9a1.75,1.75,0,0,1-1.75-1.75v-38A0,0,0,0,1,63.15,27.07Z" transform="translate(182.64 93.91) rotate(-180)"/><path class="cls-3" d="M73,27.07H64.73a1.7,1.7,0,0,0-1.7,1.7V51.91"/><line class="cls-3" x1="78.29" y1="27.07" x2="76.63" y2="27.07"/><path class="cls-3" d="M83.35,27.07h34.32a1.7,1.7,0,0,1,1.7,1.7V65.14a1.7,1.7,0,0,1-1.7,1.7H64.73a1.7,1.7,0,0,1-1.7-1.7V60.59"/><path class="cls-2" d="M45.54,23.2h67.29a0,0,0,0,1,0,0V68.39a2.31,2.31,0,0,1-2.31,2.31H47.29A1.75,1.75,0,0,1,45.54,69V23.2a0,0,0,0,1,0,0Z" transform="translate(158.37 93.91) rotate(-180)"/><path class="cls-3" d="M57.25,23.2H47.43a2,2,0,0,0-2,2V52.88"/><line class="cls-3" x1="63.62" y1="23.2" x2="61.65" y2="23.2"/><path class="cls-3" d="M69.67,23.2h41a2,2,0,0,1,2,2V68.67a2,2,0,0,1-2,2H47.43a2,2,0,0,1-2-2V63.23"/><path class="cls-2" d="M23.27,17.94h82.2a0,0,0,0,1,0,0V73.65A2.31,2.31,0,0,1,103.15,76H25a1.75,1.75,0,0,1-1.75-1.75V17.94A0,0,0,0,1,23.27,17.94Z"/><path class="cls-3" d="M91.15,76h12a2.48,2.48,0,0,0,2.48-2.48V20.42a2.48,2.48,0,0,0-2.48-2.48H38.56"/><line class="cls-3" x1="83.37" y1="75.97" x2="85.78" y2="75.97"/><path class="cls-3" d="M31.69,17.94H25.91a2.48,2.48,0,0,0-2.48,2.48V73.49A2.48,2.48,0,0,0,25.91,76H76"/><path class="cls-4" d="M99.34,26.57A2.38,2.38,0,0,0,97,24.2H32.26a2.38,2.38,0,0,0-2.38,2.38V66.83a2.38,2.38,0,0,0,2.38,2.38H97a2.38,2.38,0,0,0,2.38-2.38Z"/><g class="cls-5"><path class="cls-6" d="M88.44,67.14H87a1,1,0,0,0,0,2.07h1.45a1,1,0,1,0,0-2.07Z"/><path class="cls-6" d="M99.34,32.84V26.57A2.38,2.38,0,0,0,97,24.2H32.26a2.38,2.38,0,0,0-2.38,2.38v8.68s0,.06,0,.09V66.83a2.38,2.38,0,0,0,2.38,2.38H83.55a1,1,0,0,0,0-2.07H32.27a.31.31,0,0,1-.31-.31V33.11a.31.31,0,0,1,.31-.31h6.66a1,1,0,1,0,0-2.07H32.27a2.34,2.34,0,0,0-.32,0V26.57a.31.31,0,0,1,.31-.31H97a.31.31,0,0,1,.31.31v4.19l-.28,0H45.61a1,1,0,0,0,0,2.07h6l-3.82,3.46a1,1,0,1,0,1.39,1.53l5.52-5h7.15l-10,9.47a1,1,0,1,0,1.42,1.5l11.56-11H97a.31.31,0,0,1,.28.18v2.26a1,1,0,0,0,0,.23V66.83a.31.31,0,0,1-.31.31H92a1,1,0,0,0,0,2.07h5a2.38,2.38,0,0,0,2.38-2.38V33.11A2.33,2.33,0,0,0,99.34,32.84Z"/><path class="cls-6" d="M44.62,39.15,36.38,46.6a1,1,0,1,0,1.39,1.53L46,40.69a1,1,0,0,0-1.39-1.53Z"/><polygon class="cls-7" points="84.99 43.2 84.96 52.69 87.07 51.19 89.92 57.79 91.77 56.44 88.9 49.83 91.02 48.34 84.99 43.2"/><circle class="cls-8" cx="34.36" cy="28.59" r="0.93"/><circle class="cls-9" cx="37.13" cy="28.59" r="0.93"/><circle class="cls-10" cx="40.15" cy="28.59" r="0.93"/></g><polygon class="cls-11" points="75.2 46.95 56.79 57.64 56.79 48.11 56.79 36.27 75.2 46.95"/><path class="cls-2" d="M9.52,6.45,9.1,5.7a.67.67,0,0,0-.27-.27L8.08,5a.67.67,0,0,1,0-1.18l.75-.41a.67.67,0,0,0,.27-.27l.41-.75a.67.67,0,0,1,1.18,0l.41.75a.67.67,0,0,0,.27.27l.75.41a.67.67,0,0,1,0,1.18l-.75.41a.67.67,0,0,0-.27.27l-.41.75A.67.67,0,0,1,9.52,6.45Z"/><path class="cls-2" d="M114.68,79.44l.94-.52a.85.85,0,0,0,.33-.34l.51-.95a.85.85,0,0,1,1.48,0l.52.94a.85.85,0,0,0,.34.33l.95.51a.85.85,0,0,1,0,1.48l-.94.52a.85.85,0,0,0-.33.34l-.51.95a.85.85,0,0,1-1.48,0l-.52-.94a.85.85,0,0,0-.34-.33l-.95-.51A.85.85,0,0,1,114.68,79.44Z"/><path class="cls-2" d="M118.27,94.19l.41-.23a.37.37,0,0,0,.14-.15l.22-.41a.37.37,0,0,1,.64,0l.23.41a.37.37,0,0,0,.15.14l.41.22a.37.37,0,0,1,0,.64l-.41.23a.37.37,0,0,0-.14.15l-.22.41a.37.37,0,0,1-.64,0l-.23-.41a.37.37,0,0,0-.15-.14l-.41-.22A.37.37,0,0,1,118.27,94.19Z"/><path class="cls-1" d="M125.29,85.42a2.68,2.68,0,1,1-2.7-2.66A2.68,2.68,0,0,1,125.29,85.42Zm-3,0a.31.31,0,1,0,.31-.31A.31.31,0,0,0,122.3,85.44Z"/><path class="cls-1" d="M8.49,11.77A2.68,2.68,0,1,1,5.8,9.11,2.68,2.68,0,0,1,8.49,11.77Zm-3,0a.31.31,0,1,0,.31-.31A.31.31,0,0,0,5.51,11.79Z"/><path class="cls-1" d="M18,7.81a4,4,0,1,1-4,4A4,4,0,0,1,18,7.81Zm0,5.59a1.61,1.61,0,1,0-1.62-1.6A1.61,1.61,0,0,0,18.06,13.4Z"/><path class="cls-2" d="M.43,18.08l.92-.51a.83.83,0,0,0,.33-.33l.5-.92a.83.83,0,0,1,1.45,0l.51.92a.83.83,0,0,0,.33.33l.92.5a.83.83,0,0,1,0,1.45L4.47,20a.83.83,0,0,0-.33.33l-.5.92a.83.83,0,0,1-1.45,0l-.51-.92A.83.83,0,0,0,1.36,20l-.92-.5A.83.83,0,0,1,.43,18.08Z"/><path class="cls-2" d="M.41,1,.83.78A.38.38,0,0,0,1,.63L1.22.2a.38.38,0,0,1,.67,0l.24.43a.38.38,0,0,0,.15.15L2.71,1a.38.38,0,0,1,0,.67l-.43.24a.38.38,0,0,0-.15.15L1.9,2.5a.38.38,0,0,1-.67,0L1,2.07a.38.38,0,0,0-.15-.15L.41,1.69A.38.38,0,0,1,.41,1Z"/><path class="cls-1" d="M97.79,85.42a2.95,2.95,0,1,1-3-2.93A3,3,0,0,1,97.79,85.42Zm-3.53,0a.58.58,0,1,0,.58-.58A.58.58,0,0,0,94.26,85.44Z"/><path class="cls-2" d="M104.28,87.13l1.29-.72A1.16,1.16,0,0,0,106,86l.7-1.3a1.16,1.16,0,0,1,2,0l.72,1.29a1.16,1.16,0,0,0,.47.46l1.3.7a1.16,1.16,0,0,1,0,2l-1.29.72a1.16,1.16,0,0,0-.46.47l-.7,1.3a1.16,1.16,0,0,1-2,0l-.72-1.29a1.16,1.16,0,0,0-.47-.46l-1.3-.7A1.16,1.16,0,0,1,104.28,87.13Z"/></g></g></svg>