<svg xmlns="http://www.w3.org/2000/svg" viewBox="0 0 134.54 84.29"><defs><style>.cls-1{fill:#b7c0cc;}.cls-2{fill:#e9ecf2;}.cls-3,.cls-6,.cls-8{fill:none;stroke-linecap:round;stroke-miterlimit:10;}.cls-3{stroke:#222b3c;stroke-width:2.5px;}.cls-4{fill:#90d100;}.cls-5{fill:#222b3c;}.cls-6,.cls-8{stroke:#3a475b;}.cls-6{stroke-width:1.2px;}.cls-7{fill:#f54350;}.cls-8{stroke-width:1.24px;}</style></defs><title>Asset 4</title><g id="Layer_2" data-name="Layer 2"><g id="Layer_1-2" data-name="Layer 1"><polygon class="cls-1" points="119.93 41.47 90.78 41.47 83.76 49.31 83.79 41.47 78.35 41.47 78.35 16.7 119.93 16.7 119.93 41.47"/><polygon class="cls-2" points="117.67 39.96 88.53 39.96 81.5 47.81 81.53 39.96 76.1 39.96 76.1 15.2 117.67 15.2 117.67 39.96"/><polygon class="cls-1" points="71.36 62.92 62.35 62.92 62.35 71.69 54.17 62.92 20.02 62.92 20.02 31.14 71.36 31.14 71.36 62.92"/><polygon class="cls-2" points="68.85 60.56 59.83 60.56 59.83 69.33 51.66 60.56 17.5 60.56 17.5 28.79 68.85 28.79 68.85 60.56"/><path class="cls-2" d="M90.81,52.3l.76,1.39a1.25,1.25,0,0,0,.5.5l1.39.76a1.25,1.25,0,0,1,0,2.19l-1.39.76a1.25,1.25,0,0,0-.5.5l-.76,1.39a1.25,1.25,0,0,1-2.19,0l-.76-1.39a1.25,1.25,0,0,0-.5-.5L86,57.15A1.25,1.25,0,0,1,86,55l1.39-.76a1.25,1.25,0,0,0,.5-.5l.76-1.39A1.25,1.25,0,0,1,90.81,52.3Z"/><path class="cls-2" d="M83.15,64.19l.52.94a.85.85,0,0,0,.34.34l.94.52a.85.85,0,0,1,0,1.48L84,68a.85.85,0,0,0-.34.34l-.52.94a.85.85,0,0,1-1.48,0l-.52-.94a.85.85,0,0,0-.34-.34l-.94-.52a.85.85,0,0,1,0-1.48l.94-.52a.85.85,0,0,0,.34-.34l.52-.94A.85.85,0,0,1,83.15,64.19Z"/><path class="cls-2" d="M102.58,57.92l.52.94a.85.85,0,0,0,.34.34l.94.52a.85.85,0,0,1,0,1.48l-.94.52a.85.85,0,0,0-.34.34l-.52.94a.85.85,0,0,1-1.48,0l-.52-.94a.85.85,0,0,0-.34-.34l-.94-.52a.85.85,0,0,1,0-1.48l.94-.52a.85.85,0,0,0,.34-.34l.52-.94A.85.85,0,0,1,102.58,57.92Z"/><path class="cls-1" d="M92.58,71.74a2.68,2.68,0,1,1,2.68-2.68A2.68,2.68,0,0,1,92.58,71.74Zm0-3a.31.31,0,1,0,.31.31A.31.31,0,0,0,92.58,68.75Z"/><path class="cls-1" d="M74.89,73.38a4,4,0,1,1-4-4A4,4,0,0,1,74.89,73.38Zm-5.59,0a1.61,1.61,0,1,0,1.61-1.61A1.61,1.61,0,0,0,69.31,73.38Z"/><path class="cls-2" d="M83.13,78.91l.5.92a.83.83,0,0,0,.33.33l.92.5a.83.83,0,0,1,0,1.45l-.92.5a.83.83,0,0,0-.33.33l-.5.92a.83.83,0,0,1-1.45,0l-.5-.92a.83.83,0,0,0-.33-.33l-.92-.5a.83.83,0,0,1,0-1.45l.92-.5a.83.83,0,0,0,.33-.33l.5-.92A.83.83,0,0,1,83.13,78.91Z"/><path class="cls-2" d="M101.52,75l.23.43a.38.38,0,0,0,.15.15l.43.23a.38.38,0,0,1,0,.67l-.43.23a.38.38,0,0,0-.15.15l-.23.43a.38.38,0,0,1-.67,0l-.23-.43a.38.38,0,0,0-.15-.15L100,76.5a.38.38,0,0,1,0-.67l.43-.23a.38.38,0,0,0,.15-.15l.23-.43A.38.38,0,0,1,101.52,75Z"/><path class="cls-2" d="M41.3,12.08l.75-.41a.67.67,0,0,0,.27-.27l.41-.75a.67.67,0,0,1,1.18,0l.41.75a.67.67,0,0,0,.27.27l.75.41a.67.67,0,0,1,0,1.18l-.75.41a.67.67,0,0,0-.27.27l-.41.75a.67.67,0,0,1-1.18,0l-.41-.75a.67.67,0,0,0-.27-.27l-.75-.41A.67.67,0,0,1,41.3,12.08Z"/><path class="cls-1" d="M71,8.73a4.37,4.37,0,1,1,4.37-4.37A4.37,4.37,0,0,1,71,8.73Zm0-6.36a2,2,0,1,0,2,2A2,2,0,0,0,71,2.37Z"/><path class="cls-1" d="M56.15,20.62a2.68,2.68,0,1,1,2.68-2.68A2.68,2.68,0,0,1,56.15,20.62Zm0-3a.31.31,0,1,0,.31.31A.31.31,0,0,0,56.15,17.64Z"/><path class="cls-2" d="M59.9,5.87l.64-.35a.57.57,0,0,0,.23-.23l.35-.64a.57.57,0,0,1,1,0l.35.64a.57.57,0,0,0,.23.23l.64.35a.57.57,0,0,1,0,1l-.64.35a.57.57,0,0,0-.23.23l-.35.64a.57.57,0,0,1-1,0l-.35-.64a.57.57,0,0,0-.23-.23l-.64-.35A.57.57,0,0,1,59.9,5.87Z"/><path class="cls-2" d="M68.8,19.1l-.92.5a.83.83,0,0,0-.33.33l-.5.92a.83.83,0,0,1-1.45,0l-.5-.92a.83.83,0,0,0-.33-.33l-.92-.5a.83.83,0,0,1,0-1.45l.92-.5a.83.83,0,0,0,.33-.33l.5-.92a.83.83,0,0,1,1.45,0l.5.92a.83.83,0,0,0,.33.33l.92.5A.83.83,0,0,1,68.8,19.1Z"/><path class="cls-1" d="M48.27,8.89a2.95,2.95,0,1,1,2.95-2.95A3,3,0,0,1,48.27,8.89Zm0-3.53a.58.58,0,1,0,.58.58A.58.58,0,0,0,48.27,5.37Z"/><path class="cls-3" d="M35,60.56H51.66l7.47,8.3a.49.49,0,0,0,.82-.36l-.11-7.93h7.54a1.48,1.48,0,0,0,1.48-1.48V30.26a1.48,1.48,0,0,0-1.48-1.48H60.63"/><line class="cls-3" x1="29.64" y1="60.56" x2="31.07" y2="60.56"/><path class="cls-3" d="M24.49,60.56H19a1.48,1.48,0,0,1-1.48-1.48V30.26A1.48,1.48,0,0,1,19,28.78H55.79"/><rect class="cls-4" x="34.87" y="39.95" width="7.97" height="3.36" rx="0.67" ry="0.67"/><rect class="cls-1" x="20.81" y="39.95" width="11.92" height="3.36" rx="0.67" ry="0.67"/><rect class="cls-4" x="45.21" y="39.95" width="17.12" height="3.36" rx="0.67" ry="0.67"/><rect class="cls-1" x="24.32" y="33.32" width="25.72" height="3.36" rx="0.52" ry="0.52"/><rect class="cls-1" x="61.08" y="33.32" width="4.33" height="3.36" rx="0.52" ry="0.52"/><rect class="cls-1" x="52.56" y="33.32" width="6.19" height="3.36" rx="0.52" ry="0.52"/><rect class="cls-1" x="50.88" y="46.58" width="13.46" height="3.36" rx="0.52" ry="0.52"/><rect class="cls-4" x="40.35" y="46.58" width="8.52" height="3.36" rx="0.52" ry="0.52"/><rect class="cls-4" x="20.81" y="46.58" width="17.65" height="3.36" rx="0.67" ry="0.67"/><rect class="cls-1" x="33.65" y="53.2" width="20.37" height="3.36" rx="0.67" ry="0.67"/><rect class="cls-1" x="20.81" y="53.2" width="10.74" height="3.36" rx="0.67" ry="0.67"/><path class="cls-4" d="M13.88,47.43A12.88,12.88,0,1,1,26.76,34.55,12.89,12.89,0,0,1,13.88,47.43Z"/><path class="cls-5" d="M13.88,22.67A11.88,11.88,0,1,1,2,34.55,11.88,11.88,0,0,1,13.88,22.67m0-2A13.88,13.88,0,1,0,27.76,34.55,13.89,13.89,0,0,0,13.88,20.67Z"/><path class="cls-6" d="M20.53,32.2"/><path class="cls-5" d="M19.22,37.54c0,2.18-2.39,3.95-5.34,3.95s-5.34-1.77-5.34-3.95Z"/><circle class="cls-5" cx="18.26" cy="31.56" r="1.93"/><circle class="cls-5" cx="9.5" cy="31.56" r="1.93"/><path class="cls-3" d="M108.5,39.79H88.68L82.05,47a.36.36,0,0,1-.6-.27l.08-7H77.65a1.55,1.55,0,0,1-1.55-1.55V16.75a1.55,1.55,0,0,1,1.55-1.55H93.07"/><path class="cls-3" d="M113.14,39.79h3a1.55,1.55,0,0,0,1.55-1.55V16.75a1.55,1.55,0,0,0-1.55-1.55H100"/><rect class="cls-7" x="80.2" y="25.85" width="7.79" height="3.28" rx="0.67" ry="0.67"/><rect class="cls-7" x="90.3" y="25.85" width="10.72" height="3.28" rx="0.67" ry="0.67"/><rect class="cls-1" x="80.39" y="19.38" width="14.08" height="3.28" rx="0.67" ry="0.67"/><rect class="cls-7" x="96.74" y="19.38" width="12.81" height="3.28" rx="0.67" ry="0.67"/><rect class="cls-1" x="97.94" y="32.33" width="8.72" height="3.28" rx="0.67" ry="0.67"/><rect class="cls-1" x="80.2" y="32.33" width="15.64" height="3.28" rx="0.67" ry="0.67"/><rect class="cls-1" x="102.96" y="25.85" width="9.91" height="3.28" rx="0.67" ry="0.67"/><path class="cls-7" d="M121.43,53.56a12.11,12.11,0,1,1,12.11-12.11A12.13,12.13,0,0,1,121.43,53.56Z"/><path class="cls-5" d="M121.43,30.33a11.11,11.11,0,1,1-11.11,11.11,11.11,11.11,0,0,1,11.11-11.11m0-2a13.11,13.11,0,1,0,13.11,13.11,13.13,13.13,0,0,0-13.11-13.11Z"/><path class="cls-8" d="M127.84,39.18"/><path class="cls-5" d="M116.28,47.68c0-2.1,2.31-3.81,5.15-3.81s5.15,1.71,5.15,3.81Z"/><circle class="cls-5" cx="125.66" cy="38.56" r="1.87"/><circle class="cls-5" cx="117.2" cy="38.56" r="1.87"/></g></g></svg>