<svg xmlns="http://www.w3.org/2000/svg" viewBox="0 0 156.66 83.25"><defs><style>.cls-1{fill:#e9ecf2;}.cls-2{fill:#b7c0cc;}.cls-3{fill:#fff;}.cls-4{fill:#007bca;}.cls-5{fill:#222b3c;}.cls-6{fill:#1cbdff;}.cls-7{fill:#009fea;}.cls-8{fill:#ffd124;}.cls-9{fill:none;stroke:#253d4c;stroke-linecap:round;stroke-linejoin:round;stroke-width:1.74px;}.cls-10{fill:#f43d58;}.cls-11{fill:#92cf26;}</style></defs><title>Asset 1</title><g id="Layer_2" data-name="Layer 2"><g id="Layer_1-2" data-name="Layer 1"><path class="cls-1" d="M12.65,34.34l.75-.41a.67.67,0,0,0,.27-.27l.41-.75a.67.67,0,0,1,1.18,0l.41.75a.67.67,0,0,0,.27.27l.75.41a.67.67,0,0,1,0,1.18l-.75.41a.67.67,0,0,0-.27.27l-.41.75a.67.67,0,0,1-1.18,0l-.41-.75a.67.67,0,0,0-.27-.27l-.75-.41A.67.67,0,0,1,12.65,34.34Z"/><path class="cls-2" d="M25.16,37.37A4.37,4.37,0,1,1,29.52,33,4.37,4.37,0,0,1,25.16,37.37Zm0-6.36a2,2,0,1,0,2,2A2,2,0,0,0,25.16,31Z"/><path class="cls-1" d="M140.76,33.55l.76,1.39a1.25,1.25,0,0,0,.5.5l1.39.76a1.25,1.25,0,0,1,0,2.19l-1.39.76a1.25,1.25,0,0,0-.5.5l-.76,1.39a1.25,1.25,0,0,1-2.19,0l-.76-1.39a1.25,1.25,0,0,0-.5-.5l-1.39-.76a1.25,1.25,0,0,1,0-2.19l1.39-.76a1.25,1.25,0,0,0,.5-.5l.76-1.39A1.25,1.25,0,0,1,140.76,33.55Z"/><path class="cls-1" d="M130,29.47l.52.94a.85.85,0,0,0,.34.34l.94.52a.85.85,0,0,1,0,1.48l-.94.52a.85.85,0,0,0-.34.34l-.52.94a.85.85,0,0,1-1.48,0L128,33.6a.85.85,0,0,0-.34-.34l-.94-.52a.85.85,0,0,1,0-1.48l.94-.52a.85.85,0,0,0,.34-.34l.52-.94A.85.85,0,0,1,130,29.47Z"/><path class="cls-1" d="M154.43,39.17l.52.94a.85.85,0,0,0,.34.34l.94.52a.85.85,0,0,1,0,1.48l-.94.52a.85.85,0,0,0-.34.34l-.52.94a.85.85,0,0,1-1.48,0l-.52-.94a.85.85,0,0,0-.34-.34l-.94-.52a.85.85,0,0,1,0-1.48l.94-.52a.85.85,0,0,0,.34-.34l.52-.94A.85.85,0,0,1,154.43,39.17Z"/><path class="cls-2" d="M144.43,53a2.68,2.68,0,1,1,2.68-2.68A2.68,2.68,0,0,1,144.43,53Zm0-3a.31.31,0,1,0,.31.31A.31.31,0,0,0,144.43,50Z"/><path class="cls-2" d="M25,56.3a2.68,2.68,0,1,1,2.68-2.68A2.68,2.68,0,0,1,25,56.3Zm0-3a.31.31,0,1,0,.31.31A.31.31,0,0,0,25,53.31Z"/><path class="cls-2" d="M132.75,47.64a4,4,0,1,1-4-4A4,4,0,0,1,132.75,47.64Zm-5.59,0A1.61,1.61,0,1,0,128.77,46,1.61,1.61,0,0,0,127.16,47.64Z"/><path class="cls-1" d="M17.73,44.33l.64-.35a.57.57,0,0,0,.23-.23l.35-.64a.57.57,0,0,1,1,0l.35.64a.57.57,0,0,0,.23.23l.64.35a.57.57,0,0,1,0,1l-.64.35a.57.57,0,0,0-.23.23l-.35.64a.57.57,0,0,1-1,0l-.35-.64a.57.57,0,0,0-.23-.23l-.64-.35A.57.57,0,0,1,17.73,44.33Z"/><path class="cls-1" d="M11.52,51.41l-.92.5a.83.83,0,0,0-.33.33l-.5.92a.83.83,0,0,1-1.45,0l-.5-.92a.83.83,0,0,0-.33-.33l-.92-.5a.83.83,0,0,1,0-1.45l.92-.5a.83.83,0,0,0,.33-.33l.5-.92a.83.83,0,0,1,1.45,0l.5.92a.83.83,0,0,0,.33.33l.92.5A.83.83,0,0,1,11.52,51.41Z"/><path class="cls-1" d="M138,53.16l.5.92a.83.83,0,0,0,.33.33l.92.5a.83.83,0,0,1,0,1.45l-.92.5a.83.83,0,0,0-.33.33l-.5.92a.83.83,0,0,1-1.45,0l-.5-.92a.83.83,0,0,0-.33-.33l-.92-.5a.83.83,0,0,1,0-1.45l.92-.5a.83.83,0,0,0,.33-.33l.5-.92A.83.83,0,0,1,138,53.16Z"/><path class="cls-1" d="M155.37,53.27l.23.43a.38.38,0,0,0,.15.15l.43.23a.38.38,0,0,1,0,.67l-.43.23a.38.38,0,0,0-.15.15l-.23.43a.38.38,0,0,1-.67,0l-.23-.43a.38.38,0,0,0-.15-.15l-.43-.23a.38.38,0,0,1,0-.67l.43-.23a.38.38,0,0,0,.15-.15l.23-.43A.38.38,0,0,1,155.37,53.27Z"/><path class="cls-2" d="M2.95,42.51a2.95,2.95,0,1,1,2.95-2.95A3,3,0,0,1,2.95,42.51Zm0-3.53a.58.58,0,1,0,.58.58A.58.58,0,0,0,2.95,39Z"/><rect class="cls-3" x="35.98" y="2.95" width="86.94" height="80.3"/><rect class="cls-2" x="38.91" y="14.35" width="81.07" height="65.76"/><rect class="cls-1" x="38.91" y="9.34" width="77.66" height="67.1"/><rect class="cls-4" x="90.46" y="60.48" width="21.83" height="18.11"/><rect class="cls-4" x="65.23" y="60.48" width="21.83" height="18.11"/><rect class="cls-4" x="40.57" y="60.48" width="21.83" height="18.11"/><path class="cls-5" d="M96.32,77.56h-59A3.26,3.26,0,0,1,34.1,74.3V12.22A3.26,3.26,0,0,1,37.35,9h10.5a1.42,1.42,0,0,1,0,2.83H37.35a.42.42,0,0,0-.42.42V74.3a.42.42,0,0,0,.42.42h59a1.42,1.42,0,0,1,0,2.83Z"/><path class="cls-5" d="M103,77.56h-2a1.42,1.42,0,1,1,0-2.83h2a1.42,1.42,0,1,1,0,2.83Z"/><path class="cls-5" d="M114.74,77.56h-6.89a1.42,1.42,0,1,1,0-2.83h6.89a.42.42,0,0,0,.42-.42V12.22a.42.42,0,0,0-.42-.42h-55a1.42,1.42,0,0,1,0-2.83h55A3.26,3.26,0,0,1,118,12.22V74.3A3.26,3.26,0,0,1,114.74,77.56Z"/><rect class="cls-6" x="40.57" y="17.47" width="71.71" height="18.11"/><rect class="cls-7" x="40.57" y="38.97" width="46.49" height="18.11"/><rect class="cls-7" x="90.46" y="38.97" width="21.83" height="18.11"/><path class="cls-8" d="M79.44,61.19a4.44,4.44,0,0,1-3.25,1.37A4.35,4.35,0,0,1,73,61.19,4.41,4.41,0,0,1,71.63,58,4.48,4.48,0,0,1,73,54.74a4.35,4.35,0,0,1,3.22-1.37A4.68,4.68,0,0,1,80.81,58,4.37,4.37,0,0,1,79.44,61.19Zm-.06-11.58H73L71.8,23.94h8.73Z"/><path class="cls-3" d="M76.19,64A5.73,5.73,0,0,1,72,62.18,5.8,5.8,0,0,1,70.21,58,5.87,5.87,0,0,1,72,53.75,5.73,5.73,0,0,1,76.19,52a6.09,6.09,0,0,1,6,6,5.76,5.76,0,0,1-1.79,4.2A5.82,5.82,0,0,1,76.19,64Zm0-9.18a2.91,2.91,0,0,0-2.21.94A3.05,3.05,0,0,0,73,58a3,3,0,0,0,.94,2.2,2.92,2.92,0,0,0,2.21.95,3,3,0,0,0,2.25-1,3,3,0,0,0,1-2.19,3,3,0,0,0-1-2.25A3,3,0,0,0,76.19,54.79ZM80.74,51h-9.1l-1.33-28.5H82Zm-6.39-2.83H78l1-22.83H73.28Z"/><path class="cls-5" d="M48.05,33.17a1.42,1.42,0,0,1-1-2.47L58.39,20.5a1.42,1.42,0,1,1,1.9,2.1L49,32.8A1.41,1.41,0,0,1,48.05,33.17Z"/><path class="cls-5" d="M63.73,19a1.42,1.42,0,0,1-1-2.47l8-7.21a1.42,1.42,0,1,1,1.9,2.1l-8,7.21A1.41,1.41,0,0,1,63.73,19Z"/><path class="cls-5" d="M69.35,27.22a1.42,1.42,0,0,1-1-2.45L84.63,9.35a1.42,1.42,0,0,1,2,2.06L70.32,26.83A1.41,1.41,0,0,1,69.35,27.22Z"/><path class="cls-9" d="M87.06,76.14"/><path class="cls-5" d="M116.54,16.57a1.42,1.42,0,0,1-1.42-1.42V3.26a.42.42,0,0,0-.42-.42H37.34a.42.42,0,0,0-.42.42V15.15a1.42,1.42,0,1,1-2.83,0V3.26A3.26,3.26,0,0,1,37.34,0H114.7A3.26,3.26,0,0,1,118,3.26V15.15A1.42,1.42,0,0,1,116.54,16.57Z"/><circle class="cls-10" cx="40.22" cy="6.02" r="1.27"/><circle class="cls-11" cx="44.02" cy="6.02" r="1.27"/><circle class="cls-8" cx="48.16" cy="6.02" r="1.27"/></g></g></svg>